<?xml version="1.0" encoding="UTF-8"?>
<svg id="Background" xmlns="http://www.w3.org/2000/svg" viewBox="0 0 3219.92 1726">
  <defs>
    <style>
      .cls-1 {
        fill: #0a0a0a;
        stroke-width: 0px;
      }
    </style>
  </defs>
  <g>
    <g>
      <path class="cls-1" d="M54,1636c-.52,0-1.05-.05-1.56-.16-.51-.1-1.02-.25-1.5-.45-.48-.2-.95-.45-1.38-.74-.44-.29-.85-.63-1.22-.99-.37-.37-.7-.78-.99-1.22-.29-.43-.54-.9-.74-1.38-.2-.48-.35-.99-.45-1.5-.11-.51-.16-1.04-.16-1.56s.05-1.05.16-1.56c.1-.52.25-1.02.45-1.5.2-.48.45-.95.74-1.38.29-.44.62-.85.99-1.22.37-.37.78-.7,1.22-.99.43-.29.9-.54,1.38-.74.48-.2.99-.35,1.5-.45,2.6-.53,5.36.33,7.22,2.18.37.37.7.78.99,1.22.29.43.54.9.74,1.38.2.48.35.98.45,1.5.11.51.16,1.04.16,1.56,0,2.1-.85,4.17-2.34,5.66-1.49,1.49-3.55,2.34-5.66,2.34Z"/>
      <path class="cls-1" d="M3113.69,1628c0-4.42,3.58-8,8-8h0c4.42,0,8,3.58,8,8h0c0,4.42-3.58,8-8,8h0c-4.42,0-8-3.58-8-8ZM3023.47,1628c0-4.42,3.57-8,8-8h0c4.41,0,7.99,3.58,7.99,8h0c0,4.42-3.58,8-7.99,8h0c-4.43,0-8-3.58-8-8ZM2933.24,1628c0-4.42,3.58-8,8-8h0c4.42,0,8,3.58,8,8h0c0,4.42-3.58,8-8,8h0c-4.42,0-8-3.58-8-8ZM2843.01,1628c0-4.42,3.58-8,8-8h0c4.42,0,8,3.58,8,8h0c0,4.42-3.58,8-8,8h0c-4.42,0-8-3.58-8-8ZM2752.79,1628c0-4.42,3.58-8,8-8h0c4.41,0,8,3.58,8,8h0c0,4.42-3.59,8-8,8h0c-4.42,0-8-3.58-8-8ZM2662.56,1628c0-4.42,3.58-8,8-8h0c4.42,0,8,3.58,8,8h0c0,4.42-3.58,8-8,8h0c-4.42,0-8-3.58-8-8ZM2572.33,1628c0-4.42,3.58-8,8-8h0c4.42,0,8,3.58,8,8h0c0,4.42-3.58,8-8,8h0c-4.42,0-8-3.58-8-8ZM2482.11,1628c0-4.42,3.58-8,8-8h0c4.41,0,8,3.58,8,8h0c0,4.42-3.59,8-8,8h0c-4.42,0-8-3.58-8-8ZM2391.88,1628c0-4.42,3.58-8,8-8h0c4.42,0,8,3.58,8,8h0c0,4.42-3.58,8-8,8h0c-4.42,0-8-3.58-8-8ZM2301.65,1628c0-4.42,3.59-8,8.01-8h0c4.41,0,7.99,3.58,7.99,8h0c0,4.42-3.58,8-7.99,8h0c-4.42,0-8.01-3.58-8.01-8ZM2211.43,1628c0-4.42,3.58-8,8-8h0c4.42,0,8,3.58,8,8h0c0,4.42-3.58,8-8,8h0c-4.42,0-8-3.58-8-8ZM2121.2,1628c0-4.42,3.58-8,8-8h0c4.42,0,8,3.58,8,8h0c0,4.42-3.58,8-8,8h0c-4.42,0-8-3.58-8-8ZM2030.98,1628c0-4.42,3.58-8,8-8h0c4.41,0,8,3.58,8,8h0c0,4.42-3.59,8-8,8h0c-4.42,0-8-3.58-8-8ZM1940.75,1628c0-4.42,3.58-8,8-8h0c4.42,0,8,3.58,8,8h0c0,4.42-3.58,8-8,8h0c-4.42,0-8-3.58-8-8ZM1850.52,1628c0-4.42,3.59-8,8-8h0c4.42,0,8,3.58,8,8h0c0,4.42-3.58,8-8,8h0c-4.41,0-8-3.58-8-8ZM1760.3,1628c0-4.42,3.58-8,8-8h0c4.42,0,8,3.58,8,8h0c0,4.42-3.58,8-8,8h0c-4.42,0-8-3.58-8-8ZM1670.07,1628c0-4.42,3.58-8,8-8h0c4.42,0,8,3.58,8,8h0c0,4.42-3.58,8-8,8h0c-4.42,0-8-3.58-8-8ZM1579.84,1628c0-4.42,3.59-8,8.01-8h0c4.41,0,8,3.58,8,8h0c0,4.42-3.59,8-8,8h0c-4.42,0-8.01-3.58-8.01-8ZM1489.62,1628c0-4.42,3.58-8,8-8h0c4.42,0,8,3.58,8,8h0c0,4.42-3.58,8-8,8h0c-4.42,0-8-3.58-8-8ZM1399.39,1628c0-4.42,3.59-8,8-8h0c4.42,0,8,3.58,8,8h0c0,4.42-3.58,8-8,8h0c-4.41,0-8-3.58-8-8ZM1309.17,1628c0-4.42,3.58-8,8-8h0c4.42,0,8,3.58,8,8h0c0,4.42-3.58,8-8,8h0c-4.42,0-8-3.58-8-8ZM1218.94,1628c0-4.42,3.58-8,8-8h0c4.42,0,8,3.58,8,8h0c0,4.42-3.58,8-8,8h0c-4.42,0-8-3.58-8-8ZM1128.71,1628c0-4.42,3.59-8,8-8h0c4.42,0,8,3.58,8,8h0c0,4.42-3.58,8-8,8h0c-4.41,0-8-3.58-8-8ZM1038.49,1628c0-4.42,3.58-8,8-8h0c4.42,0,8,3.58,8,8h0c0,4.42-3.58,8-8,8h0c-4.42,0-8-3.58-8-8ZM948.26,1628c0-4.42,3.58-8,8-8h0c4.42,0,8,3.58,8,8h0c0,4.42-3.58,8-8,8h0c-4.42,0-8-3.58-8-8ZM858.04,1628c0-4.42,3.58-8,8-8h0c4.41,0,8,3.58,8,8h0c0,4.42-3.59,8-8,8h0c-4.42,0-8-3.58-8-8ZM767.81,1628c0-4.42,3.58-8,8-8h0c4.42,0,8,3.58,8,8h0c0,4.42-3.58,8-8,8h0c-4.42,0-8-3.58-8-8ZM677.58,1628c0-4.42,3.59-8,8-8h0c4.42,0,8,3.58,8,8h0c0,4.42-3.58,8-8,8h0c-4.41,0-8-3.58-8-8ZM587.36,1628c0-4.42,3.58-8,8-8h0c4.42,0,8,3.58,8,8h0c0,4.42-3.58,8-8,8h0c-4.42,0-8-3.58-8-8ZM497.13,1628c0-4.42,3.58-8,8-8h0c4.42,0,8,3.58,8,8h0c0,4.42-3.58,8-8,8h0c-4.42,0-8-3.58-8-8ZM406.91,1628c0-4.42,3.58-8,7.99-8h0c4.42,0,8.01,3.58,8.01,8h0c0,4.42-3.59,8-8.01,8h0c-4.41,0-7.99-3.58-7.99-8ZM316.68,1628c0-4.42,3.58-8,8-8h0c4.42,0,8,3.58,8,8h0c0,4.42-3.58,8-8,8h0c-4.42,0-8-3.58-8-8ZM226.45,1628c0-4.42,3.58-8,8-8h0c4.42,0,8,3.58,8,8h0c0,4.42-3.58,8-8,8h0c-4.42,0-8-3.58-8-8ZM136.23,1628c0-4.42,3.58-8,8-8h0c4.42,0,8,3.58,8,8h0c0,4.42-3.58,8-8,8h0c-4.42,0-8-3.58-8-8Z"/>
      <path class="cls-1" d="M3211.92,1636c-.52,0-1.05-.05-1.56-.16-.51-.1-1.02-.25-1.5-.45-.48-.2-.95-.45-1.38-.74-.44-.29-.85-.62-1.22-.99s-.7-.78-.99-1.22c-.29-.43-.54-.9-.74-1.38-.2-.48-.35-.99-.45-1.5-.11-.51-.16-1.04-.16-1.56s.05-1.05.16-1.56c.1-.51.25-1.02.45-1.5.2-.48.45-.95.74-1.38.29-.44.62-.85.99-1.22.37-.37.78-.7,1.22-.99.43-.29.9-.54,1.38-.74.48-.2.99-.35,1.5-.45,2.6-.53,5.36.33,7.22,2.18.37.37.7.78.99,1.22.29.43.54.9.74,1.38.2.48.35.99.45,1.5.11.51.16,1.04.16,1.56s-.05,1.05-.16,1.56c-.1.51-.25,1.02-.45,1.5-.2.48-.45.95-.74,1.38-.29.44-.62.85-.99,1.22-1.49,1.49-3.55,2.34-5.66,2.34Z"/>
    </g>
    <g>
      <path class="cls-1" d="M8,1726c-.52,0-1.05-.05-1.56-.16-.51-.1-1.02-.25-1.5-.45-.48-.2-.95-.45-1.38-.74-.44-.29-.85-.63-1.22-.99-1.49-1.49-2.34-3.55-2.34-5.66,0-.52.05-1.05.16-1.56.1-.51.25-1.02.45-1.5.2-.48.45-.95.74-1.38.29-.44.62-.85.99-1.22.37-.37.78-.7,1.22-.99.43-.29.9-.54,1.38-.74.48-.2.99-.35,1.5-.45,2.6-.53,5.36.32,7.22,2.18.37.37.7.78.99,1.22.29.43.54.9.74,1.38.2.48.35.99.45,1.5.11.51.16,1.04.16,1.56,0,2.1-.85,4.17-2.34,5.66-1.49,1.49-3.56,2.34-5.66,2.34Z"/>
      <path class="cls-1" d="M3067.69,1718c0-4.42,3.58-8,8-8h0c4.42,0,8,3.58,8,8h0c0,4.42-3.58,8-8,8h0c-4.42,0-8-3.58-8-8ZM2977.46,1718c0-4.42,3.59-8,8-8h0c4.42,0,8,3.58,8,8h0c0,4.42-3.58,8-8,8h0c-4.41,0-8-3.58-8-8ZM2887.24,1718c0-4.42,3.58-8,8-8h0c4.42,0,8,3.58,8,8h0c0,4.42-3.58,8-8,8h0c-4.42,0-8-3.58-8-8ZM2797.01,1718c0-4.42,3.58-8,8-8h0c4.42,0,8,3.58,8,8h0c0,4.42-3.58,8-8,8h0c-4.42,0-8-3.58-8-8ZM2706.79,1718c0-4.42,3.58-8,8-8h0c4.41,0,7.99,3.58,7.99,8h0c0,4.42-3.58,8-7.99,8h0c-4.42,0-8-3.58-8-8ZM2616.56,1718c0-4.42,3.58-8,8-8h0c4.42,0,8,3.58,8,8h0c0,4.42-3.58,8-8,8h0c-4.42,0-8-3.58-8-8ZM2526.33,1718c0-4.42,3.59-8,8-8h0c4.42,0,8,3.58,8,8h0c0,4.42-3.58,8-8,8h0c-4.41,0-8-3.58-8-8ZM2436.11,1718c0-4.42,3.58-8,8-8h0c4.41,0,8,3.58,8,8h0c0,4.42-3.59,8-8,8h0c-4.42,0-8-3.58-8-8ZM2345.88,1718c0-4.42,3.58-8,8-8h0c4.42,0,8,3.58,8,8h0c0,4.42-3.58,8-8,8h0c-4.42,0-8-3.58-8-8ZM2255.66,1718c0-4.42,3.58-8,8-8h0c4.41,0,7.99,3.58,7.99,8h0c0,4.42-3.58,8-7.99,8h0c-4.42,0-8-3.58-8-8ZM2165.43,1718c0-4.42,3.58-8,8-8h0c4.42,0,8,3.58,8,8h0c0,4.42-3.58,8-8,8h0c-4.42,0-8-3.58-8-8ZM2075.2,1718c0-4.42,3.58-8,8-8h0c4.42,0,8,3.58,8,8h0c0,4.42-3.58,8-8,8h0c-4.42,0-8-3.58-8-8ZM1984.98,1718c0-4.42,3.58-8,8-8h0c4.42,0,8,3.58,8,8h0c0,4.42-3.58,8-8,8h0c-4.42,0-8-3.58-8-8ZM1894.75,1718c0-4.42,3.58-8,8-8h0c4.42,0,8,3.58,8,8h0c0,4.42-3.58,8-8,8h0c-4.42,0-8-3.58-8-8ZM1804.52,1718c0-4.42,3.59-8,8-8h0c4.42,0,8.01,3.58,8.01,8h0c0,4.42-3.59,8-8.01,8h0c-4.41,0-8-3.58-8-8ZM1714.3,1718c0-4.42,3.58-8,8-8h0c4.42,0,8,3.58,8,8h0c0,4.42-3.58,8-8,8h0c-4.42,0-8-3.58-8-8ZM1624.07,1718c0-4.42,3.58-8,8-8h0c4.42,0,8,3.58,8,8h0c0,4.42-3.58,8-8,8h0c-4.42,0-8-3.58-8-8ZM1533.85,1718c0-4.42,3.58-8,7.99-8h0c4.42,0,8.01,3.58,8.01,8h0c0,4.42-3.59,8-8.01,8h0c-4.41,0-7.99-3.58-7.99-8ZM1443.62,1718c0-4.42,3.58-8,8-8h0c4.42,0,8,3.58,8,8h0c0,4.42-3.58,8-8,8h0c-4.42,0-8-3.58-8-8ZM1353.39,1718c0-4.42,3.59-8,8-8h0c4.42,0,8,3.58,8,8h0c0,4.42-3.58,8-8,8h0c-4.41,0-8-3.58-8-8ZM1263.17,1718c0-4.42,3.58-8,8-8h0c4.41,0,8,3.58,8,8h0c0,4.42-3.59,8-8,8h0c-4.42,0-8-3.58-8-8ZM1172.94,1718c0-4.42,3.58-8,8-8h0c4.42,0,8,3.58,8,8h0c0,4.42-3.58,8-8,8h0c-4.42,0-8-3.58-8-8ZM1082.72,1718c0-4.42,3.58-8,8-8h0c4.41,0,7.99,3.58,7.99,8h0c0,4.42-3.58,8-7.99,8h0c-4.42,0-8-3.58-8-8ZM992.49,1718c0-4.42,3.58-8,8-8h0c4.42,0,8,3.58,8,8h0c0,4.42-3.58,8-8,8h0c-4.42,0-8-3.58-8-8ZM902.26,1718c0-4.42,3.58-8,8-8h0c4.42,0,8,3.58,8,8h0c0,4.42-3.58,8-8,8h0c-4.42,0-8-3.58-8-8ZM812.04,1718c0-4.42,3.58-8,8-8h0c4.42,0,8,3.58,8,8h0c0,4.42-3.58,8-8,8h0c-4.42,0-8-3.58-8-8ZM721.81,1718c0-4.42,3.58-8,8-8h0c4.42,0,8,3.58,8,8h0c0,4.42-3.58,8-8,8h0c-4.42,0-8-3.58-8-8ZM631.58,1718c0-4.42,3.58-8,8-8h0c4.42,0,8,3.58,8,8h0c0,4.42-3.58,8-8,8h0c-4.42,0-8-3.58-8-8ZM541.36,1718c0-4.42,3.58-8,8-8h0c4.42,0,8,3.58,8,8h0c0,4.42-3.58,8-8,8h0c-4.42,0-8-3.58-8-8ZM451.13,1718c0-4.42,3.58-8,8-8h0c4.42,0,8,3.58,8,8h0c0,4.42-3.58,8-8,8h0c-4.42,0-8-3.58-8-8ZM360.9,1718c0-4.42,3.59-8,8-8h0c4.42,0,8,3.58,8,8h0c0,4.42-3.58,8-8,8h0c-4.41,0-8-3.58-8-8ZM270.68,1718c0-4.42,3.58-8,8-8h0c4.42,0,8,3.58,8,8h0c0,4.42-3.58,8-8,8h0c-4.42,0-8-3.58-8-8ZM180.45,1718c0-4.42,3.59-8,8-8h0c4.42,0,8,3.58,8,8h0c0,4.42-3.58,8-8,8h0c-4.41,0-8-3.58-8-8ZM90.23,1718c0-4.42,3.58-8,8-8h0c4.41,0,8,3.58,8,8h0c0,4.42-3.59,8-8,8h0c-4.42,0-8-3.58-8-8Z"/>
      <path class="cls-1" d="M3165.92,1726c-.52,0-1.05-.05-1.56-.16-.51-.1-1.02-.25-1.5-.45-.48-.2-.95-.45-1.38-.74-.44-.29-.85-.62-1.22-.99-1.49-1.49-2.34-3.56-2.34-5.66,0-.52.05-1.05.16-1.56.1-.51.25-1.02.45-1.5.2-.48.45-.95.74-1.38.29-.44.62-.85.99-1.22,1.86-1.86,4.63-2.71,7.22-2.19.51.11,1.02.26,1.5.46.48.2.95.45,1.38.74.44.29.85.62,1.21.99.37.37.71.78,1,1.22.29.43.54.9.74,1.38.2.48.35.99.45,1.5.11.51.16,1.04.16,1.56s-.05,1.05-.16,1.56c-.1.51-.25,1.02-.45,1.5-.2.48-.45.95-.74,1.38-.29.44-.63.85-1,1.22-.36.37-.77.7-1.21.99-.43.29-.9.54-1.38.74-.48.2-.99.35-1.5.45-.51.11-1.04.16-1.56.16Z"/>
    </g>
  </g>
  <g>
    <g>
      <path class="cls-1" d="M54,1456c-2.1,0-4.17-.85-5.66-2.34-1.49-1.49-2.34-3.56-2.34-5.66,0-.52.05-1.05.16-1.56.1-.51.25-1.02.45-1.5.2-.48.45-.95.74-1.38.29-.44.62-.85.99-1.22.37-.37.78-.7,1.22-.99.43-.29.9-.54,1.38-.74.48-.2.99-.35,1.5-.45,2.6-.53,5.36.33,7.22,2.18.36.37.7.78.99,1.22.29.43.54.9.74,1.38.2.48.35.99.45,1.5.11.51.16,1.04.16,1.56,0,2.11-.85,4.17-2.34,5.66-1.49,1.49-3.55,2.34-5.66,2.34Z"/>
      <path class="cls-1" d="M3113.69,1448c0-4.42,3.58-8,8-8h0c4.42,0,8,3.58,8,8h0c0,4.42-3.58,8-8,8h0c-4.42,0-8-3.58-8-8ZM3023.47,1448c0-4.42,3.57-8,8-8h0c4.41,0,7.99,3.58,7.99,8h0c0,4.42-3.58,8-7.99,8h0c-4.43,0-8-3.58-8-8ZM2933.24,1448c0-4.42,3.58-8,8-8h0c4.42,0,8,3.58,8,8h0c0,4.42-3.58,8-8,8h0c-4.42,0-8-3.58-8-8ZM2843.01,1448c0-4.42,3.58-8,8-8h0c4.42,0,8,3.58,8,8h0c0,4.42-3.58,8-8,8h0c-4.42,0-8-3.58-8-8ZM2752.79,1448c0-4.42,3.58-8,8-8h0c4.41,0,8,3.58,8,8h0c0,4.42-3.59,8-8,8h0c-4.42,0-8-3.58-8-8ZM2662.56,1448c0-4.42,3.58-8,8-8h0c4.42,0,8,3.58,8,8h0c0,4.42-3.58,8-8,8h0c-4.42,0-8-3.58-8-8ZM2572.33,1448c0-4.42,3.58-8,8-8h0c4.42,0,8,3.58,8,8h0c0,4.42-3.58,8-8,8h0c-4.42,0-8-3.58-8-8ZM2482.11,1448c0-4.42,3.58-8,8-8h0c4.41,0,8,3.58,8,8h0c0,4.42-3.59,8-8,8h0c-4.42,0-8-3.58-8-8ZM2391.88,1448c0-4.42,3.58-8,8-8h0c4.42,0,8,3.58,8,8h0c0,4.42-3.58,8-8,8h0c-4.42,0-8-3.58-8-8ZM2301.65,1448c0-4.42,3.59-8,8.01-8h0c4.41,0,7.99,3.58,7.99,8h0c0,4.42-3.58,8-7.99,8h0c-4.42,0-8.01-3.58-8.01-8ZM2211.43,1448c0-4.42,3.58-8,8-8h0c4.42,0,8,3.58,8,8h0c0,4.42-3.58,8-8,8h0c-4.42,0-8-3.58-8-8ZM2121.2,1448c0-4.42,3.58-8,8-8h0c4.42,0,8,3.58,8,8h0c0,4.42-3.58,8-8,8h0c-4.42,0-8-3.58-8-8ZM2030.98,1448c0-4.42,3.58-8,8-8h0c4.41,0,8,3.58,8,8h0c0,4.42-3.59,8-8,8h0c-4.42,0-8-3.58-8-8ZM1940.75,1448c0-4.42,3.58-8,8-8h0c4.42,0,8,3.58,8,8h0c0,4.42-3.58,8-8,8h0c-4.42,0-8-3.58-8-8ZM1850.52,1448c0-4.42,3.59-8,8-8h0c4.42,0,8,3.58,8,8h0c0,4.42-3.58,8-8,8h0c-4.41,0-8-3.58-8-8ZM1760.3,1448c0-4.42,3.58-8,8-8h0c4.42,0,8,3.58,8,8h0c0,4.42-3.58,8-8,8h0c-4.42,0-8-3.58-8-8ZM1670.07,1448c0-4.42,3.58-8,8-8h0c4.42,0,8,3.58,8,8h0c0,4.42-3.58,8-8,8h0c-4.42,0-8-3.58-8-8ZM1579.84,1448c0-4.42,3.59-8,8.01-8h0c4.41,0,8,3.58,8,8h0c0,4.42-3.59,8-8,8h0c-4.42,0-8.01-3.58-8.01-8ZM1489.62,1448c0-4.42,3.58-8,8-8h0c4.42,0,8,3.58,8,8h0c0,4.42-3.58,8-8,8h0c-4.42,0-8-3.58-8-8ZM1399.39,1448c0-4.42,3.59-8,8-8h0c4.42,0,8,3.58,8,8h0c0,4.42-3.58,8-8,8h0c-4.41,0-8-3.58-8-8ZM1309.17,1448c0-4.42,3.58-8,8-8h0c4.42,0,8,3.58,8,8h0c0,4.42-3.58,8-8,8h0c-4.42,0-8-3.58-8-8ZM1218.94,1448c0-4.42,3.58-8,8-8h0c4.42,0,8,3.58,8,8h0c0,4.42-3.58,8-8,8h0c-4.42,0-8-3.58-8-8ZM1128.71,1448c0-4.42,3.59-8,8-8h0c4.42,0,8,3.58,8,8h0c0,4.42-3.58,8-8,8h0c-4.41,0-8-3.58-8-8ZM1038.49,1448c0-4.42,3.58-8,8-8h0c4.42,0,8,3.58,8,8h0c0,4.42-3.58,8-8,8h0c-4.42,0-8-3.58-8-8ZM948.26,1448c0-4.42,3.58-8,8-8h0c4.42,0,8,3.58,8,8h0c0,4.42-3.58,8-8,8h0c-4.42,0-8-3.58-8-8ZM858.04,1448c0-4.42,3.58-8,8-8h0c4.41,0,8,3.58,8,8h0c0,4.42-3.59,8-8,8h0c-4.42,0-8-3.58-8-8ZM767.81,1448c0-4.42,3.58-8,8-8h0c4.42,0,8,3.58,8,8h0c0,4.42-3.58,8-8,8h0c-4.42,0-8-3.58-8-8ZM677.58,1448c0-4.42,3.59-8,8-8h0c4.42,0,8,3.58,8,8h0c0,4.42-3.58,8-8,8h0c-4.41,0-8-3.58-8-8ZM587.36,1448c0-4.42,3.58-8,8-8h0c4.42,0,8,3.58,8,8h0c0,4.42-3.58,8-8,8h0c-4.42,0-8-3.58-8-8ZM497.13,1448c0-4.42,3.58-8,8-8h0c4.42,0,8,3.58,8,8h0c0,4.42-3.58,8-8,8h0c-4.42,0-8-3.58-8-8ZM406.91,1448c0-4.42,3.58-8,7.99-8h0c4.42,0,8.01,3.58,8.01,8h0c0,4.42-3.59,8-8.01,8h0c-4.41,0-7.99-3.58-7.99-8ZM316.68,1448c0-4.42,3.58-8,8-8h0c4.42,0,8,3.58,8,8h0c0,4.42-3.58,8-8,8h0c-4.42,0-8-3.58-8-8ZM226.45,1448c0-4.42,3.58-8,8-8h0c4.42,0,8,3.58,8,8h0c0,4.42-3.58,8-8,8h0c-4.42,0-8-3.58-8-8ZM136.23,1448c0-4.42,3.58-8,8-8h0c4.42,0,8,3.58,8,8h0c0,4.42-3.58,8-8,8h0c-4.42,0-8-3.58-8-8Z"/>
      <path class="cls-1" d="M3211.92,1456c-.52,0-1.05-.05-1.56-.16-.51-.1-1.02-.25-1.5-.45-.48-.2-.95-.45-1.38-.74-.44-.29-.85-.62-1.22-.99-1.49-1.49-2.34-3.55-2.34-5.66,0-.52.05-1.05.16-1.56.1-.51.25-1.02.45-1.5.2-.48.45-.95.74-1.38.29-.44.62-.85.99-1.22.37-.37.78-.7,1.22-.99.43-.29.9-.54,1.38-.74.48-.2.99-.35,1.5-.45,1.03-.21,2.09-.21,3.12,0,.51.1,1.02.25,1.5.45.48.2.95.45,1.38.74.44.29.85.62,1.22.99.37.37.7.78.99,1.22.29.43.54.9.74,1.38.2.48.35.99.45,1.5.11.51.16,1.04.16,1.56,0,2.11-.85,4.17-2.34,5.66-.37.37-.78.7-1.22.99-.43.29-.9.54-1.38.74-.48.2-.99.35-1.5.45-.51.11-1.04.16-1.56.16Z"/>
    </g>
    <g>
      <path class="cls-1" d="M8,1546c-.52,0-1.05-.05-1.56-.16-.51-.1-1.02-.25-1.5-.45-.48-.2-.95-.45-1.38-.74-.44-.29-.85-.62-1.22-.99-.37-.37-.7-.78-.99-1.22-.29-.43-.54-.9-.74-1.38-.2-.48-.35-.99-.45-1.5-.11-.51-.16-1.04-.16-1.56s.05-1.05.16-1.56c.1-.52.25-1.02.45-1.5.2-.48.45-.95.74-1.38.29-.44.62-.85.99-1.22.37-.37.78-.7,1.22-.99.43-.29.9-.54,1.38-.74.48-.2.99-.35,1.5-.46,1.03-.2,2.09-.2,3.12,0,.51.11,1.02.26,1.5.46.48.2.95.45,1.38.74.44.29.85.62,1.22.99.37.37.7.78.99,1.22.29.43.54.9.74,1.38.2.48.35.98.45,1.5.11.51.16,1.04.16,1.56s-.05,1.05-.16,1.56c-.1.51-.25,1.02-.45,1.5-.2.48-.45.95-.74,1.38-.29.44-.62.85-.99,1.22-.37.37-.78.7-1.22.99-.43.29-.9.54-1.38.74-.48.2-.99.35-1.5.45-.51.11-1.04.16-1.56.16Z"/>
      <path class="cls-1" d="M3067.69,1538c0-4.42,3.58-8,8-8h0c4.42,0,8,3.58,8,8h0c0,4.42-3.58,8-8,8h0c-4.42,0-8-3.58-8-8ZM2977.46,1538c0-4.42,3.59-8,8-8h0c4.42,0,8,3.58,8,8h0c0,4.42-3.58,8-8,8h0c-4.41,0-8-3.58-8-8ZM2887.24,1538c0-4.42,3.58-8,8-8h0c4.42,0,8,3.58,8,8h0c0,4.42-3.58,8-8,8h0c-4.42,0-8-3.58-8-8ZM2797.01,1538c0-4.42,3.58-8,8-8h0c4.42,0,8,3.58,8,8h0c0,4.42-3.58,8-8,8h0c-4.42,0-8-3.58-8-8ZM2706.79,1538c0-4.42,3.58-8,8-8h0c4.41,0,7.99,3.58,7.99,8h0c0,4.42-3.58,8-7.99,8h0c-4.42,0-8-3.58-8-8ZM2616.56,1538c0-4.42,3.58-8,8-8h0c4.42,0,8,3.58,8,8h0c0,4.42-3.58,8-8,8h0c-4.42,0-8-3.58-8-8ZM2526.33,1538c0-4.42,3.59-8,8-8h0c4.42,0,8,3.58,8,8h0c0,4.42-3.58,8-8,8h0c-4.41,0-8-3.58-8-8ZM2436.11,1538c0-4.42,3.58-8,8-8h0c4.41,0,8,3.58,8,8h0c0,4.42-3.59,8-8,8h0c-4.42,0-8-3.58-8-8ZM2345.88,1538c0-4.42,3.58-8,8-8h0c4.42,0,8,3.58,8,8h0c0,4.42-3.58,8-8,8h0c-4.42,0-8-3.58-8-8ZM2255.66,1538c0-4.42,3.58-8,8-8h0c4.41,0,7.99,3.58,7.99,8h0c0,4.42-3.58,8-7.99,8h0c-4.42,0-8-3.58-8-8ZM2165.43,1538c0-4.42,3.58-8,8-8h0c4.42,0,8,3.58,8,8h0c0,4.42-3.58,8-8,8h0c-4.42,0-8-3.58-8-8ZM2075.2,1538c0-4.42,3.58-8,8-8h0c4.42,0,8,3.58,8,8h0c0,4.42-3.58,8-8,8h0c-4.42,0-8-3.58-8-8ZM1984.98,1538c0-4.42,3.58-8,8-8h0c4.42,0,8,3.58,8,8h0c0,4.42-3.58,8-8,8h0c-4.42,0-8-3.58-8-8ZM1894.75,1538c0-4.42,3.58-8,8-8h0c4.42,0,8,3.58,8,8h0c0,4.42-3.58,8-8,8h0c-4.42,0-8-3.58-8-8ZM1804.52,1538c0-4.42,3.59-8,8-8h0c4.42,0,8.01,3.58,8.01,8h0c0,4.42-3.59,8-8.01,8h0c-4.41,0-8-3.58-8-8ZM1714.3,1538c0-4.42,3.58-8,8-8h0c4.42,0,8,3.58,8,8h0c0,4.42-3.58,8-8,8h0c-4.42,0-8-3.58-8-8ZM1624.07,1538c0-4.42,3.58-8,8-8h0c4.42,0,8,3.58,8,8h0c0,4.42-3.58,8-8,8h0c-4.42,0-8-3.58-8-8ZM1533.85,1538c0-4.42,3.58-8,7.99-8h0c4.42,0,8.01,3.58,8.01,8h0c0,4.42-3.59,8-8.01,8h0c-4.41,0-7.99-3.58-7.99-8ZM1443.62,1538c0-4.42,3.58-8,8-8h0c4.42,0,8,3.58,8,8h0c0,4.42-3.58,8-8,8h0c-4.42,0-8-3.58-8-8ZM1353.39,1538c0-4.42,3.59-8,8-8h0c4.42,0,8,3.58,8,8h0c0,4.42-3.58,8-8,8h0c-4.41,0-8-3.58-8-8ZM1263.17,1538c0-4.42,3.58-8,8-8h0c4.41,0,8,3.58,8,8h0c0,4.42-3.59,8-8,8h0c-4.42,0-8-3.58-8-8ZM1172.94,1538c0-4.42,3.58-8,8-8h0c4.42,0,8,3.58,8,8h0c0,4.42-3.58,8-8,8h0c-4.42,0-8-3.58-8-8ZM1082.72,1538c0-4.42,3.58-8,8-8h0c4.41,0,7.99,3.58,7.99,8h0c0,4.42-3.58,8-7.99,8h0c-4.42,0-8-3.58-8-8ZM992.49,1538c0-4.42,3.58-8,8-8h0c4.42,0,8,3.58,8,8h0c0,4.42-3.58,8-8,8h0c-4.42,0-8-3.58-8-8ZM902.26,1538c0-4.42,3.58-8,8-8h0c4.42,0,8,3.58,8,8h0c0,4.42-3.58,8-8,8h0c-4.42,0-8-3.58-8-8ZM812.04,1538c0-4.42,3.58-8,8-8h0c4.42,0,8,3.58,8,8h0c0,4.42-3.58,8-8,8h0c-4.42,0-8-3.58-8-8ZM721.81,1538c0-4.42,3.58-8,8-8h0c4.42,0,8,3.58,8,8h0c0,4.42-3.58,8-8,8h0c-4.42,0-8-3.58-8-8ZM631.58,1538c0-4.42,3.58-8,8-8h0c4.42,0,8,3.58,8,8h0c0,4.42-3.58,8-8,8h0c-4.42,0-8-3.58-8-8ZM541.36,1538c0-4.42,3.58-8,8-8h0c4.42,0,8,3.58,8,8h0c0,4.42-3.58,8-8,8h0c-4.42,0-8-3.58-8-8ZM451.13,1538c0-4.42,3.58-8,8-8h0c4.42,0,8,3.58,8,8h0c0,4.42-3.58,8-8,8h0c-4.42,0-8-3.58-8-8ZM360.9,1538c0-4.42,3.59-8,8-8h0c4.42,0,8,3.58,8,8h0c0,4.42-3.58,8-8,8h0c-4.41,0-8-3.58-8-8ZM270.68,1538c0-4.42,3.58-8,8-8h0c4.42,0,8,3.58,8,8h0c0,4.42-3.58,8-8,8h0c-4.42,0-8-3.58-8-8ZM180.45,1538c0-4.42,3.59-8,8-8h0c4.42,0,8,3.58,8,8h0c0,4.42-3.58,8-8,8h0c-4.41,0-8-3.58-8-8ZM90.23,1538c0-4.42,3.58-8,8-8h0c4.41,0,8,3.58,8,8h0c0,4.42-3.59,8-8,8h0c-4.42,0-8-3.58-8-8Z"/>
      <path class="cls-1" d="M3165.92,1546c-.52,0-1.05-.05-1.56-.16-.51-.1-1.02-.25-1.5-.45-.48-.2-.95-.45-1.38-.74-.44-.29-.85-.62-1.22-.99-1.49-1.49-2.34-3.56-2.34-5.66,0-.52.05-1.05.16-1.56.1-.51.25-1.02.45-1.5.2-.48.45-.95.74-1.38.29-.44.62-.85.99-1.22,1.86-1.86,4.63-2.71,7.22-2.19.51.11,1.02.26,1.5.46.48.2.95.45,1.38.74.44.29.85.62,1.21.99.37.37.71.78,1,1.22.29.43.54.9.74,1.38.2.48.35.99.45,1.5.11.51.16,1.04.16,1.56s-.05,1.05-.16,1.56c-.1.51-.25,1.02-.45,1.5-.2.48-.45.95-.74,1.38-.29.44-.63.85-1,1.22-.36.37-.77.7-1.21.99-.43.29-.9.54-1.38.74-.48.2-.99.35-1.5.45-.51.11-1.04.16-1.56.16Z"/>
    </g>
  </g>
  <g>
    <g>
      <path class="cls-1" d="M54,1276c-.52,0-1.05-.05-1.56-.16-.51-.1-1.02-.25-1.5-.45-.48-.2-.95-.45-1.38-.74-.44-.29-.85-.62-1.22-.99-.37-.37-.7-.78-.99-1.22-.29-.43-.54-.9-.74-1.38-.2-.48-.35-.99-.45-1.5-.11-.51-.16-1.04-.16-1.56s.05-1.05.16-1.56c.1-.52.25-1.02.45-1.5.2-.48.45-.95.74-1.38.29-.44.62-.85.99-1.22.37-.37.78-.7,1.22-.99.43-.29.9-.54,1.38-.74.48-.2.99-.35,1.5-.45,2.6-.53,5.36.33,7.22,2.18.36.37.7.78.99,1.22.29.43.54.9.74,1.38.2.48.35.98.45,1.5.11.51.16,1.04.16,1.56s-.05,1.05-.16,1.56c-.1.51-.25,1.02-.45,1.5-.2.48-.45.95-.74,1.38-.29.44-.63.85-.99,1.22-1.49,1.49-3.56,2.34-5.66,2.34Z"/>
      <path class="cls-1" d="M3113.69,1268c0-4.42,3.58-8,8-8h0c4.42,0,8,3.58,8,8h0c0,4.42-3.58,8-8,8h0c-4.42,0-8-3.58-8-8ZM3023.47,1268c0-4.42,3.57-8,8-8h0c4.41,0,7.99,3.58,7.99,8h0c0,4.42-3.58,8-7.99,8h0c-4.43,0-8-3.58-8-8ZM2933.24,1268c0-4.42,3.58-8,8-8h0c4.42,0,8,3.58,8,8h0c0,4.42-3.58,8-8,8h0c-4.42,0-8-3.58-8-8ZM2843.01,1268c0-4.42,3.58-8,8-8h0c4.42,0,8,3.58,8,8h0c0,4.42-3.58,8-8,8h0c-4.42,0-8-3.58-8-8ZM2752.79,1268c0-4.42,3.58-8,8-8h0c4.41,0,8,3.58,8,8h0c0,4.42-3.59,8-8,8h0c-4.42,0-8-3.58-8-8ZM2662.56,1268c0-4.42,3.58-8,8-8h0c4.42,0,8,3.58,8,8h0c0,4.42-3.58,8-8,8h0c-4.42,0-8-3.58-8-8ZM2572.33,1268c0-4.42,3.58-8,8-8h0c4.42,0,8,3.58,8,8h0c0,4.42-3.58,8-8,8h0c-4.42,0-8-3.58-8-8ZM2482.11,1268c0-4.42,3.58-8,8-8h0c4.41,0,8,3.58,8,8h0c0,4.42-3.59,8-8,8h0c-4.42,0-8-3.58-8-8ZM2391.88,1268c0-4.42,3.58-8,8-8h0c4.42,0,8,3.58,8,8h0c0,4.42-3.58,8-8,8h0c-4.42,0-8-3.58-8-8ZM2301.65,1268c0-4.42,3.59-8,8.01-8h0c4.41,0,7.99,3.58,7.99,8h0c0,4.42-3.58,8-7.99,8h0c-4.42,0-8.01-3.58-8.01-8ZM2211.43,1268c0-4.42,3.58-8,8-8h0c4.42,0,8,3.58,8,8h0c0,4.42-3.58,8-8,8h0c-4.42,0-8-3.58-8-8ZM2121.2,1268c0-4.42,3.58-8,8-8h0c4.42,0,8,3.58,8,8h0c0,4.42-3.58,8-8,8h0c-4.42,0-8-3.58-8-8ZM2030.98,1268c0-4.42,3.58-8,8-8h0c4.41,0,8,3.58,8,8h0c0,4.42-3.59,8-8,8h0c-4.42,0-8-3.58-8-8ZM1940.75,1268c0-4.42,3.58-8,8-8h0c4.42,0,8,3.58,8,8h0c0,4.42-3.58,8-8,8h0c-4.42,0-8-3.58-8-8ZM1850.52,1268c0-4.42,3.59-8,8-8h0c4.42,0,8,3.58,8,8h0c0,4.42-3.58,8-8,8h0c-4.41,0-8-3.58-8-8ZM1760.3,1268c0-4.42,3.58-8,8-8h0c4.42,0,8,3.58,8,8h0c0,4.42-3.58,8-8,8h0c-4.42,0-8-3.58-8-8ZM1670.07,1268c0-4.42,3.58-8,8-8h0c4.42,0,8,3.58,8,8h0c0,4.42-3.58,8-8,8h0c-4.42,0-8-3.58-8-8ZM1579.84,1268c0-4.42,3.59-8,8.01-8h0c4.41,0,8,3.58,8,8h0c0,4.42-3.59,8-8,8h0c-4.42,0-8.01-3.58-8.01-8ZM1489.62,1268c0-4.42,3.58-8,8-8h0c4.42,0,8,3.58,8,8h0c0,4.42-3.58,8-8,8h0c-4.42,0-8-3.58-8-8ZM1399.39,1268c0-4.42,3.59-8,8-8h0c4.42,0,8,3.58,8,8h0c0,4.42-3.58,8-8,8h0c-4.41,0-8-3.58-8-8ZM1309.17,1268c0-4.42,3.58-8,8-8h0c4.42,0,8,3.58,8,8h0c0,4.42-3.58,8-8,8h0c-4.42,0-8-3.58-8-8ZM1218.94,1268c0-4.42,3.58-8,8-8h0c4.42,0,8,3.58,8,8h0c0,4.42-3.58,8-8,8h0c-4.42,0-8-3.58-8-8ZM1128.71,1268c0-4.42,3.59-8,8-8h0c4.42,0,8,3.58,8,8h0c0,4.42-3.58,8-8,8h0c-4.41,0-8-3.58-8-8ZM1038.49,1268c0-4.42,3.58-8,8-8h0c4.42,0,8,3.58,8,8h0c0,4.42-3.58,8-8,8h0c-4.42,0-8-3.58-8-8ZM948.26,1268c0-4.42,3.58-8,8-8h0c4.42,0,8,3.58,8,8h0c0,4.42-3.58,8-8,8h0c-4.42,0-8-3.58-8-8ZM858.04,1268c0-4.42,3.58-8,8-8h0c4.41,0,8,3.58,8,8h0c0,4.42-3.59,8-8,8h0c-4.42,0-8-3.58-8-8ZM767.81,1268c0-4.42,3.58-8,8-8h0c4.42,0,8,3.58,8,8h0c0,4.42-3.58,8-8,8h0c-4.42,0-8-3.58-8-8ZM677.58,1268c0-4.42,3.59-8,8-8h0c4.42,0,8,3.58,8,8h0c0,4.42-3.58,8-8,8h0c-4.41,0-8-3.58-8-8ZM587.36,1268c0-4.42,3.58-8,8-8h0c4.42,0,8,3.58,8,8h0c0,4.42-3.58,8-8,8h0c-4.42,0-8-3.58-8-8ZM497.13,1268c0-4.42,3.58-8,8-8h0c4.42,0,8,3.58,8,8h0c0,4.42-3.58,8-8,8h0c-4.42,0-8-3.58-8-8ZM406.91,1268c0-4.42,3.58-8,7.99-8h0c4.42,0,8.01,3.58,8.01,8h0c0,4.42-3.59,8-8.01,8h0c-4.41,0-7.99-3.58-7.99-8ZM316.68,1268c0-4.42,3.58-8,8-8h0c4.42,0,8,3.58,8,8h0c0,4.42-3.58,8-8,8h0c-4.42,0-8-3.58-8-8ZM226.45,1268c0-4.42,3.58-8,8-8h0c4.42,0,8,3.58,8,8h0c0,4.42-3.58,8-8,8h0c-4.42,0-8-3.58-8-8ZM136.23,1268c0-4.42,3.58-8,8-8h0c4.42,0,8,3.58,8,8h0c0,4.42-3.58,8-8,8h0c-4.42,0-8-3.58-8-8Z"/>
      <path class="cls-1" d="M3211.92,1276c-.52,0-1.05-.05-1.56-.16-.51-.1-1.02-.25-1.5-.45-.48-.2-.95-.45-1.38-.74-.44-.29-.85-.63-1.22-.99-.37-.37-.7-.78-.99-1.22-.29-.43-.54-.9-.74-1.38-.2-.48-.35-.99-.45-1.5-.11-.51-.16-1.04-.16-1.56,0-2.11.85-4.17,2.34-5.66.37-.37.78-.7,1.22-.99.43-.29.9-.54,1.38-.74.48-.2.99-.35,1.5-.45,2.6-.53,5.36.32,7.22,2.18,1.49,1.49,2.34,3.55,2.34,5.66,0,.52-.05,1.05-.16,1.56-.1.51-.25,1.02-.45,1.5-.2.48-.45.95-.74,1.38-.29.44-.62.85-.99,1.22-1.49,1.48-3.55,2.34-5.66,2.34Z"/>
    </g>
    <g>
      <path class="cls-1" d="M8,1366c-2.1,0-4.17-.85-5.66-2.34-.37-.37-.7-.78-.99-1.22-.29-.43-.54-.9-.74-1.38-.2-.48-.35-.99-.45-1.5-.11-.51-.16-1.04-.16-1.56s.05-1.05.16-1.56c.1-.52.25-1.02.45-1.5.2-.48.45-.95.74-1.38.29-.44.62-.85.99-1.22.37-.37.78-.7,1.22-.99.43-.29.9-.54,1.38-.74.48-.2.99-.35,1.5-.45,1.03-.21,2.09-.21,3.12,0,.51.1,1.02.25,1.5.45.48.2.95.45,1.38.74.44.29.85.62,1.22.99.37.37.7.78.99,1.22.29.43.54.9.74,1.38.2.48.35.98.45,1.5.11.51.16,1.04.16,1.56s-.05,1.05-.16,1.56c-.1.51-.25,1.02-.45,1.5-.2.48-.45.95-.74,1.38-.29.44-.62.85-.99,1.22-1.49,1.49-3.56,2.34-5.66,2.34Z"/>
      <path class="cls-1" d="M3067.69,1358c0-4.42,3.58-8,8-8h0c4.42,0,8,3.58,8,8h0c0,4.42-3.58,8-8,8h0c-4.42,0-8-3.58-8-8ZM2977.46,1358c0-4.42,3.59-8,8-8h0c4.42,0,8,3.58,8,8h0c0,4.42-3.58,8-8,8h0c-4.41,0-8-3.58-8-8ZM2887.24,1358c0-4.42,3.58-8,8-8h0c4.42,0,8,3.58,8,8h0c0,4.42-3.58,8-8,8h0c-4.42,0-8-3.58-8-8ZM2797.01,1358c0-4.42,3.58-8,8-8h0c4.42,0,8,3.58,8,8h0c0,4.42-3.58,8-8,8h0c-4.42,0-8-3.58-8-8ZM2706.79,1358c0-4.42,3.58-8,8-8h0c4.41,0,7.99,3.58,7.99,8h0c0,4.42-3.58,8-7.99,8h0c-4.42,0-8-3.58-8-8ZM2616.56,1358c0-4.42,3.58-8,8-8h0c4.42,0,8,3.58,8,8h0c0,4.42-3.58,8-8,8h0c-4.42,0-8-3.58-8-8ZM2526.33,1358c0-4.42,3.59-8,8-8h0c4.42,0,8,3.58,8,8h0c0,4.42-3.58,8-8,8h0c-4.41,0-8-3.58-8-8ZM2436.11,1358c0-4.42,3.58-8,8-8h0c4.41,0,8,3.58,8,8h0c0,4.42-3.59,8-8,8h0c-4.42,0-8-3.58-8-8ZM2345.88,1358c0-4.42,3.58-8,8-8h0c4.42,0,8,3.58,8,8h0c0,4.42-3.58,8-8,8h0c-4.42,0-8-3.58-8-8ZM2255.66,1358c0-4.42,3.58-8,8-8h0c4.41,0,7.99,3.58,7.99,8h0c0,4.42-3.58,8-7.99,8h0c-4.42,0-8-3.58-8-8ZM2165.43,1358c0-4.42,3.58-8,8-8h0c4.42,0,8,3.58,8,8h0c0,4.42-3.58,8-8,8h0c-4.42,0-8-3.58-8-8ZM2075.2,1358c0-4.42,3.58-8,8-8h0c4.42,0,8,3.58,8,8h0c0,4.42-3.58,8-8,8h0c-4.42,0-8-3.58-8-8ZM1984.98,1358c0-4.42,3.58-8,8-8h0c4.42,0,8,3.58,8,8h0c0,4.42-3.58,8-8,8h0c-4.42,0-8-3.58-8-8ZM1894.75,1358c0-4.42,3.58-8,8-8h0c4.42,0,8,3.58,8,8h0c0,4.42-3.58,8-8,8h0c-4.42,0-8-3.58-8-8ZM1804.52,1358c0-4.42,3.59-8,8-8h0c4.42,0,8.01,3.58,8.01,8h0c0,4.42-3.59,8-8.01,8h0c-4.41,0-8-3.58-8-8ZM1714.3,1358c0-4.42,3.58-8,8-8h0c4.42,0,8,3.58,8,8h0c0,4.42-3.58,8-8,8h0c-4.42,0-8-3.58-8-8ZM1624.07,1358c0-4.42,3.58-8,8-8h0c4.42,0,8,3.58,8,8h0c0,4.42-3.58,8-8,8h0c-4.42,0-8-3.58-8-8ZM1533.85,1358c0-4.42,3.58-8,7.99-8h0c4.42,0,8.01,3.58,8.01,8h0c0,4.42-3.59,8-8.01,8h0c-4.41,0-7.99-3.58-7.99-8ZM1443.62,1358c0-4.42,3.58-8,8-8h0c4.42,0,8,3.58,8,8h0c0,4.42-3.58,8-8,8h0c-4.42,0-8-3.58-8-8ZM1353.39,1358c0-4.42,3.59-8,8-8h0c4.42,0,8,3.58,8,8h0c0,4.42-3.58,8-8,8h0c-4.41,0-8-3.58-8-8ZM1263.17,1358c0-4.42,3.58-8,8-8h0c4.41,0,8,3.58,8,8h0c0,4.42-3.59,8-8,8h0c-4.42,0-8-3.58-8-8ZM1172.94,1358c0-4.42,3.58-8,8-8h0c4.42,0,8,3.58,8,8h0c0,4.42-3.58,8-8,8h0c-4.42,0-8-3.58-8-8ZM1082.72,1358c0-4.42,3.58-8,8-8h0c4.41,0,7.99,3.58,7.99,8h0c0,4.42-3.58,8-7.99,8h0c-4.42,0-8-3.58-8-8ZM992.49,1358c0-4.42,3.58-8,8-8h0c4.42,0,8,3.58,8,8h0c0,4.42-3.58,8-8,8h0c-4.42,0-8-3.58-8-8ZM902.26,1358c0-4.42,3.58-8,8-8h0c4.42,0,8,3.58,8,8h0c0,4.42-3.58,8-8,8h0c-4.42,0-8-3.58-8-8ZM812.04,1358c0-4.42,3.58-8,8-8h0c4.42,0,8,3.58,8,8h0c0,4.42-3.58,8-8,8h0c-4.42,0-8-3.58-8-8ZM721.81,1358c0-4.42,3.58-8,8-8h0c4.42,0,8,3.58,8,8h0c0,4.42-3.58,8-8,8h0c-4.42,0-8-3.58-8-8ZM631.58,1358c0-4.42,3.58-8,8-8h0c4.42,0,8,3.58,8,8h0c0,4.42-3.58,8-8,8h0c-4.42,0-8-3.58-8-8ZM541.36,1358c0-4.42,3.58-8,8-8h0c4.42,0,8,3.58,8,8h0c0,4.42-3.58,8-8,8h0c-4.42,0-8-3.58-8-8ZM451.13,1358c0-4.42,3.58-8,8-8h0c4.42,0,8,3.58,8,8h0c0,4.42-3.58,8-8,8h0c-4.42,0-8-3.58-8-8ZM360.9,1358c0-4.42,3.59-8,8-8h0c4.42,0,8,3.58,8,8h0c0,4.42-3.58,8-8,8h0c-4.41,0-8-3.58-8-8ZM270.68,1358c0-4.42,3.58-8,8-8h0c4.42,0,8,3.58,8,8h0c0,4.42-3.58,8-8,8h0c-4.42,0-8-3.58-8-8ZM180.45,1358c0-4.42,3.59-8,8-8h0c4.42,0,8,3.58,8,8h0c0,4.42-3.58,8-8,8h0c-4.41,0-8-3.58-8-8ZM90.23,1358c0-4.42,3.58-8,8-8h0c4.41,0,8,3.58,8,8h0c0,4.42-3.59,8-8,8h0c-4.42,0-8-3.58-8-8Z"/>
      <path class="cls-1" d="M3165.92,1366c-.52,0-1.05-.05-1.56-.16-.51-.1-1.02-.25-1.5-.45-.48-.2-.95-.45-1.38-.74-.44-.29-.85-.62-1.22-.99-1.49-1.49-2.34-3.56-2.34-5.66,0-.52.05-1.05.16-1.56.1-.51.25-1.02.45-1.5.2-.48.45-.95.74-1.38.29-.44.62-.85.99-1.22,1.86-1.86,4.63-2.71,7.22-2.19.51.11,1.02.26,1.5.46.48.2.95.45,1.38.74.44.29.85.62,1.21.99.37.37.71.78,1,1.22.29.43.54.9.74,1.38.2.48.35.99.45,1.5.11.51.16,1.04.16,1.56,0,2.1-.85,4.17-2.35,5.66-.36.37-.77.7-1.21.99-.43.29-.9.54-1.38.74-.48.2-.99.35-1.5.45-.51.11-1.04.16-1.56.16Z"/>
    </g>
  </g>
  <g>
    <g>
      <path class="cls-1" d="M54,1096c-.52,0-1.05-.05-1.56-.16-.51-.1-1.02-.25-1.5-.45-.48-.2-.95-.45-1.38-.74-.44-.29-.85-.63-1.22-1-1.49-1.48-2.34-3.55-2.34-5.65,0-.52.05-1.05.16-1.56.1-.51.25-1.02.45-1.5.2-.48.45-.95.74-1.38.29-.44.62-.85.99-1.22.37-.37.78-.7,1.22-.99.43-.29.9-.54,1.38-.74.48-.2.99-.35,1.5-.45,2.6-.53,5.36.32,7.22,2.18.36.37.7.78.99,1.22.29.43.54.9.74,1.38.2.48.35.99.45,1.5.11.51.16,1.04.16,1.56,0,2.11-.85,4.17-2.34,5.65-1.49,1.49-3.55,2.35-5.66,2.35Z"/>
      <path class="cls-1" d="M3113.69,1088c0-4.42,3.58-8,8-8h0c4.42,0,8,3.58,8,8h0c0,4.42-3.58,8-8,8h0c-4.42,0-8-3.58-8-8ZM3023.47,1088c0-4.42,3.57-8,8-8h0c4.41,0,7.99,3.58,7.99,8h0c0,4.42-3.58,8-7.99,8h0c-4.43,0-8-3.58-8-8ZM2933.24,1088c0-4.42,3.58-8,8-8h0c4.42,0,8,3.58,8,8h0c0,4.42-3.58,8-8,8h0c-4.42,0-8-3.58-8-8ZM2843.01,1088c0-4.42,3.58-8,8-8h0c4.42,0,8,3.58,8,8h0c0,4.42-3.58,8-8,8h0c-4.42,0-8-3.58-8-8ZM2752.79,1088c0-4.42,3.58-8,8-8h0c4.41,0,8,3.58,8,8h0c0,4.42-3.59,8-8,8h0c-4.42,0-8-3.58-8-8ZM2662.56,1088c0-4.42,3.58-8,8-8h0c4.42,0,8,3.58,8,8h0c0,4.42-3.58,8-8,8h0c-4.42,0-8-3.58-8-8ZM2572.33,1088c0-4.42,3.58-8,8-8h0c4.42,0,8,3.58,8,8h0c0,4.42-3.58,8-8,8h0c-4.42,0-8-3.58-8-8ZM2482.11,1088c0-4.42,3.58-8,8-8h0c4.41,0,8,3.58,8,8h0c0,4.42-3.59,8-8,8h0c-4.42,0-8-3.58-8-8ZM2391.88,1088c0-4.42,3.58-8,8-8h0c4.42,0,8,3.58,8,8h0c0,4.42-3.58,8-8,8h0c-4.42,0-8-3.58-8-8ZM2301.65,1088c0-4.42,3.59-8,8.01-8h0c4.41,0,7.99,3.58,7.99,8h0c0,4.42-3.58,8-7.99,8h0c-4.42,0-8.01-3.58-8.01-8ZM2211.43,1088c0-4.42,3.58-8,8-8h0c4.42,0,8,3.58,8,8h0c0,4.42-3.58,8-8,8h0c-4.42,0-8-3.58-8-8ZM2121.2,1088c0-4.42,3.58-8,8-8h0c4.42,0,8,3.58,8,8h0c0,4.42-3.58,8-8,8h0c-4.42,0-8-3.58-8-8ZM2030.98,1088c0-4.42,3.58-8,8-8h0c4.41,0,8,3.58,8,8h0c0,4.42-3.59,8-8,8h0c-4.42,0-8-3.58-8-8ZM1940.75,1088c0-4.42,3.58-8,8-8h0c4.42,0,8,3.58,8,8h0c0,4.42-3.58,8-8,8h0c-4.42,0-8-3.58-8-8ZM1850.52,1088c0-4.42,3.59-8,8-8h0c4.42,0,8,3.58,8,8h0c0,4.42-3.58,8-8,8h0c-4.41,0-8-3.58-8-8ZM1760.3,1088c0-4.42,3.58-8,8-8h0c4.42,0,8,3.58,8,8h0c0,4.42-3.58,8-8,8h0c-4.42,0-8-3.58-8-8ZM1670.07,1088c0-4.42,3.58-8,8-8h0c4.42,0,8,3.58,8,8h0c0,4.42-3.58,8-8,8h0c-4.42,0-8-3.58-8-8ZM1579.84,1088c0-4.42,3.59-8,8.01-8h0c4.41,0,8,3.58,8,8h0c0,4.42-3.59,8-8,8h0c-4.42,0-8.01-3.58-8.01-8ZM1489.62,1088c0-4.42,3.58-8,8-8h0c4.42,0,8,3.58,8,8h0c0,4.42-3.58,8-8,8h0c-4.42,0-8-3.58-8-8ZM1399.39,1088c0-4.42,3.59-8,8-8h0c4.42,0,8,3.58,8,8h0c0,4.42-3.58,8-8,8h0c-4.41,0-8-3.58-8-8ZM1309.17,1088c0-4.42,3.58-8,8-8h0c4.42,0,8,3.58,8,8h0c0,4.42-3.58,8-8,8h0c-4.42,0-8-3.58-8-8ZM1218.94,1088c0-4.42,3.58-8,8-8h0c4.42,0,8,3.58,8,8h0c0,4.42-3.58,8-8,8h0c-4.42,0-8-3.58-8-8ZM1128.71,1088c0-4.42,3.59-8,8-8h0c4.42,0,8,3.58,8,8h0c0,4.42-3.58,8-8,8h0c-4.41,0-8-3.58-8-8ZM1038.49,1088c0-4.42,3.58-8,8-8h0c4.42,0,8,3.58,8,8h0c0,4.42-3.58,8-8,8h0c-4.42,0-8-3.58-8-8ZM948.26,1088c0-4.42,3.58-8,8-8h0c4.42,0,8,3.58,8,8h0c0,4.42-3.58,8-8,8h0c-4.42,0-8-3.58-8-8ZM858.04,1088c0-4.42,3.58-8,8-8h0c4.41,0,8,3.58,8,8h0c0,4.42-3.59,8-8,8h0c-4.42,0-8-3.58-8-8ZM767.81,1088c0-4.42,3.58-8,8-8h0c4.42,0,8,3.58,8,8h0c0,4.42-3.58,8-8,8h0c-4.42,0-8-3.58-8-8ZM677.58,1088c0-4.42,3.59-8,8-8h0c4.42,0,8,3.58,8,8h0c0,4.42-3.58,8-8,8h0c-4.41,0-8-3.58-8-8ZM587.36,1088c0-4.42,3.58-8,8-8h0c4.42,0,8,3.58,8,8h0c0,4.42-3.58,8-8,8h0c-4.42,0-8-3.58-8-8ZM497.13,1088c0-4.42,3.58-8,8-8h0c4.42,0,8,3.58,8,8h0c0,4.42-3.58,8-8,8h0c-4.42,0-8-3.58-8-8ZM406.91,1088c0-4.42,3.58-8,7.99-8h0c4.42,0,8.01,3.58,8.01,8h0c0,4.42-3.59,8-8.01,8h0c-4.41,0-7.99-3.58-7.99-8ZM316.68,1088c0-4.42,3.58-8,8-8h0c4.42,0,8,3.58,8,8h0c0,4.42-3.58,8-8,8h0c-4.42,0-8-3.58-8-8ZM226.45,1088c0-4.42,3.58-8,8-8h0c4.42,0,8,3.58,8,8h0c0,4.42-3.58,8-8,8h0c-4.42,0-8-3.58-8-8ZM136.23,1088c0-4.42,3.58-8,8-8h0c4.42,0,8,3.58,8,8h0c0,4.42-3.58,8-8,8h0c-4.42,0-8-3.58-8-8Z"/>
      <path class="cls-1" d="M3211.92,1096c-.52,0-1.05-.05-1.56-.16-.51-.1-1.02-.25-1.5-.45-.48-.2-.95-.45-1.38-.74-.44-.29-.85-.63-1.22-.99-1.49-1.49-2.34-3.56-2.34-5.66,0-.52.05-1.05.16-1.56.1-.52.25-1.02.45-1.5.2-.48.45-.95.74-1.38.29-.44.62-.85.99-1.22.37-.37.78-.7,1.22-.99.43-.29.9-.54,1.38-.74.48-.2.99-.35,1.5-.45,2.6-.53,5.36.32,7.22,2.18.37.37.7.78.99,1.22.29.43.54.9.74,1.38.2.48.35.98.45,1.5.11.51.16,1.04.16,1.56,0,2.1-.85,4.17-2.34,5.66-1.49,1.49-3.55,2.34-5.66,2.34Z"/>
    </g>
    <g>
      <path class="cls-1" d="M8,1186c-2.11,0-4.17-.85-5.66-2.34-.37-.37-.7-.78-.99-1.22-.29-.43-.54-.9-.74-1.38-.2-.48-.35-.99-.45-1.5-.11-.51-.16-1.04-.16-1.56s.05-1.05.16-1.56c.1-.51.25-1.02.45-1.5.2-.48.45-.95.74-1.38.29-.44.62-.85.99-1.22.37-.37.78-.7,1.22-.99.43-.29.9-.54,1.38-.74.48-.2.99-.35,1.5-.45,2.6-.53,5.36.33,7.22,2.18.37.37.7.78.99,1.22.29.43.54.9.74,1.38.2.48.35.99.45,1.5.11.51.16,1.04.16,1.56s-.05,1.05-.16,1.56c-.1.51-.25,1.02-.45,1.5-.2.48-.45.95-.74,1.38-.29.44-.62.85-.99,1.22-1.49,1.49-3.55,2.34-5.66,2.34Z"/>
      <path class="cls-1" d="M3067.69,1178c0-4.42,3.58-8,8-8h0c4.42,0,8,3.58,8,8h0c0,4.42-3.58,8-8,8h0c-4.42,0-8-3.58-8-8ZM2977.46,1178c0-4.42,3.59-8,8-8h0c4.42,0,8,3.58,8,8h0c0,4.42-3.58,8-8,8h0c-4.41,0-8-3.58-8-8ZM2887.24,1178c0-4.42,3.58-8,8-8h0c4.42,0,8,3.58,8,8h0c0,4.42-3.58,8-8,8h0c-4.42,0-8-3.58-8-8ZM2797.01,1178c0-4.42,3.58-8,8-8h0c4.42,0,8,3.58,8,8h0c0,4.42-3.58,8-8,8h0c-4.42,0-8-3.58-8-8ZM2706.79,1178c0-4.42,3.58-8,8-8h0c4.41,0,7.99,3.58,7.99,8h0c0,4.42-3.58,8-7.99,8h0c-4.42,0-8-3.58-8-8ZM2616.56,1178c0-4.42,3.58-8,8-8h0c4.42,0,8,3.58,8,8h0c0,4.42-3.58,8-8,8h0c-4.42,0-8-3.58-8-8ZM2526.33,1178c0-4.42,3.59-8,8-8h0c4.42,0,8,3.58,8,8h0c0,4.42-3.58,8-8,8h0c-4.41,0-8-3.58-8-8ZM2436.11,1178c0-4.42,3.58-8,8-8h0c4.41,0,8,3.58,8,8h0c0,4.42-3.59,8-8,8h0c-4.42,0-8-3.58-8-8ZM2345.88,1178c0-4.42,3.58-8,8-8h0c4.42,0,8,3.58,8,8h0c0,4.42-3.58,8-8,8h0c-4.42,0-8-3.58-8-8ZM2255.66,1178c0-4.42,3.58-8,8-8h0c4.41,0,7.99,3.58,7.99,8h0c0,4.42-3.58,8-7.99,8h0c-4.42,0-8-3.58-8-8ZM2165.43,1178c0-4.42,3.58-8,8-8h0c4.42,0,8,3.58,8,8h0c0,4.42-3.58,8-8,8h0c-4.42,0-8-3.58-8-8ZM2075.2,1178c0-4.42,3.58-8,8-8h0c4.42,0,8,3.58,8,8h0c0,4.42-3.58,8-8,8h0c-4.42,0-8-3.58-8-8ZM1984.98,1178c0-4.42,3.58-8,8-8h0c4.42,0,8,3.58,8,8h0c0,4.42-3.58,8-8,8h0c-4.42,0-8-3.58-8-8ZM1894.75,1178c0-4.42,3.58-8,8-8h0c4.42,0,8,3.58,8,8h0c0,4.42-3.58,8-8,8h0c-4.42,0-8-3.58-8-8ZM1804.52,1178c0-4.42,3.59-8,8-8h0c4.42,0,8.01,3.58,8.01,8h0c0,4.42-3.59,8-8.01,8h0c-4.41,0-8-3.58-8-8ZM1714.3,1178c0-4.42,3.58-8,8-8h0c4.42,0,8,3.58,8,8h0c0,4.42-3.58,8-8,8h0c-4.42,0-8-3.58-8-8ZM1624.07,1178c0-4.42,3.58-8,8-8h0c4.42,0,8,3.58,8,8h0c0,4.42-3.58,8-8,8h0c-4.42,0-8-3.58-8-8ZM1533.85,1178c0-4.42,3.58-8,7.99-8h0c4.42,0,8.01,3.58,8.01,8h0c0,4.42-3.59,8-8.01,8h0c-4.41,0-7.99-3.58-7.99-8ZM1443.62,1178c0-4.42,3.58-8,8-8h0c4.42,0,8,3.58,8,8h0c0,4.42-3.58,8-8,8h0c-4.42,0-8-3.58-8-8ZM1353.39,1178c0-4.42,3.59-8,8-8h0c4.42,0,8,3.58,8,8h0c0,4.42-3.58,8-8,8h0c-4.41,0-8-3.58-8-8ZM1263.17,1178c0-4.42,3.58-8,8-8h0c4.41,0,8,3.58,8,8h0c0,4.42-3.59,8-8,8h0c-4.42,0-8-3.58-8-8ZM1172.94,1178c0-4.42,3.58-8,8-8h0c4.42,0,8,3.58,8,8h0c0,4.42-3.58,8-8,8h0c-4.42,0-8-3.58-8-8ZM1082.72,1178c0-4.42,3.58-8,8-8h0c4.41,0,7.99,3.58,7.99,8h0c0,4.42-3.58,8-7.99,8h0c-4.42,0-8-3.58-8-8ZM992.49,1178c0-4.42,3.58-8,8-8h0c4.42,0,8,3.58,8,8h0c0,4.42-3.58,8-8,8h0c-4.42,0-8-3.58-8-8ZM902.26,1178c0-4.42,3.58-8,8-8h0c4.42,0,8,3.58,8,8h0c0,4.42-3.58,8-8,8h0c-4.42,0-8-3.58-8-8ZM812.04,1178c0-4.42,3.58-8,8-8h0c4.42,0,8,3.58,8,8h0c0,4.42-3.58,8-8,8h0c-4.42,0-8-3.58-8-8ZM721.81,1178c0-4.42,3.58-8,8-8h0c4.42,0,8,3.58,8,8h0c0,4.42-3.58,8-8,8h0c-4.42,0-8-3.58-8-8ZM631.58,1178c0-4.42,3.58-8,8-8h0c4.42,0,8,3.58,8,8h0c0,4.42-3.58,8-8,8h0c-4.42,0-8-3.58-8-8ZM541.36,1178c0-4.42,3.58-8,8-8h0c4.42,0,8,3.58,8,8h0c0,4.42-3.58,8-8,8h0c-4.42,0-8-3.58-8-8ZM451.13,1178c0-4.42,3.58-8,8-8h0c4.42,0,8,3.58,8,8h0c0,4.42-3.58,8-8,8h0c-4.42,0-8-3.58-8-8ZM360.9,1178c0-4.42,3.59-8,8-8h0c4.42,0,8,3.58,8,8h0c0,4.42-3.58,8-8,8h0c-4.41,0-8-3.58-8-8ZM270.68,1178c0-4.42,3.58-8,8-8h0c4.42,0,8,3.58,8,8h0c0,4.42-3.58,8-8,8h0c-4.42,0-8-3.58-8-8ZM180.45,1178c0-4.42,3.59-8,8-8h0c4.42,0,8,3.58,8,8h0c0,4.42-3.58,8-8,8h0c-4.41,0-8-3.58-8-8ZM90.23,1178c0-4.42,3.58-8,8-8h0c4.41,0,8,3.58,8,8h0c0,4.42-3.59,8-8,8h0c-4.42,0-8-3.58-8-8Z"/>
      <path class="cls-1" d="M3165.92,1186c-.52,0-1.05-.05-1.56-.16-.51-.1-1.02-.25-1.5-.45-.48-.2-.95-.45-1.38-.74-.44-.29-.85-.62-1.22-.99-1.49-1.49-2.34-3.56-2.34-5.66,0-.52.05-1.05.16-1.56.1-.51.25-1.02.45-1.5.2-.48.45-.95.74-1.38.29-.44.62-.85.99-1.22.37-.37.78-.7,1.22-.99.43-.29.9-.54,1.38-.74.48-.2.99-.35,1.5-.45,2.59-.53,5.36.33,7.21,2.18.37.37.71.78,1,1.22.29.43.54.9.74,1.38.2.48.35.99.45,1.5.11.51.16,1.04.16,1.56,0,2.1-.85,4.17-2.35,5.66-.36.37-.77.7-1.21.99-.43.29-.9.54-1.38.74-.48.2-.99.35-1.5.45-.51.11-1.04.16-1.56.16Z"/>
    </g>
  </g>
  <g>
    <g>
      <path class="cls-1" d="M54,916c-.52,0-1.05-.05-1.56-.16-.51-.1-1.02-.25-1.5-.45-.48-.2-.95-.45-1.38-.74-.44-.29-.85-.63-1.22-.99-.37-.37-.7-.78-.99-1.22-.29-.43-.54-.9-.74-1.38-.2-.48-.35-.99-.45-1.5-.11-.51-.16-1.04-.16-1.56s.05-1.05.16-1.56c.1-.51.25-1.02.45-1.5.2-.48.45-.95.74-1.38.29-.44.62-.85.99-1.22.37-.37.78-.7,1.22-.99.43-.29.9-.54,1.38-.74.48-.2.99-.35,1.5-.45,1.03-.21,2.09-.21,3.12,0,.51.1,1.02.25,1.5.45.48.2.95.45,1.38.74.44.29.85.62,1.22.99.37.37.7.78.99,1.22.29.43.54.9.74,1.38.2.48.35.99.45,1.5.11.51.16,1.04.16,1.56s-.05,1.05-.16,1.56c-.1.51-.25,1.02-.45,1.5-.2.48-.45.95-.74,1.38-.29.44-.63.85-.99,1.22-.37.36-.78.7-1.22.99-.43.29-.9.54-1.38.74-.48.2-.99.35-1.5.45-.51.11-1.04.16-1.56.16Z"/>
      <path class="cls-1" d="M3113.69,908c0-4.42,3.58-8,8-8h0c4.42,0,8,3.58,8,8h0c0,4.42-3.58,8-8,8h0c-4.42,0-8-3.58-8-8ZM3023.47,908c0-4.42,3.57-8,8-8h0c4.41,0,7.99,3.58,7.99,8h0c0,4.42-3.58,8-7.99,8h0c-4.43,0-8-3.58-8-8ZM2933.24,908c0-4.42,3.58-8,8-8h0c4.42,0,8,3.58,8,8h0c0,4.42-3.58,8-8,8h0c-4.42,0-8-3.58-8-8ZM2843.01,908c0-4.42,3.58-8,8-8h0c4.42,0,8,3.58,8,8h0c0,4.42-3.58,8-8,8h0c-4.42,0-8-3.58-8-8ZM2752.79,908c0-4.42,3.58-8,8-8h0c4.41,0,8,3.58,8,8h0c0,4.42-3.59,8-8,8h0c-4.42,0-8-3.58-8-8ZM2662.56,908c0-4.42,3.58-8,8-8h0c4.42,0,8,3.58,8,8h0c0,4.42-3.58,8-8,8h0c-4.42,0-8-3.58-8-8ZM2572.33,908c0-4.42,3.58-8,8-8h0c4.42,0,8,3.58,8,8h0c0,4.42-3.58,8-8,8h0c-4.42,0-8-3.58-8-8ZM2482.11,908c0-4.42,3.58-8,8-8h0c4.41,0,8,3.58,8,8h0c0,4.42-3.59,8-8,8h0c-4.42,0-8-3.58-8-8ZM2391.88,908c0-4.42,3.58-8,8-8h0c4.42,0,8,3.58,8,8h0c0,4.42-3.58,8-8,8h0c-4.42,0-8-3.58-8-8ZM2301.65,908c0-4.42,3.59-8,8.01-8h0c4.41,0,7.99,3.58,7.99,8h0c0,4.42-3.58,8-7.99,8h0c-4.42,0-8.01-3.58-8.01-8ZM2211.43,908c0-4.42,3.58-8,8-8h0c4.42,0,8,3.58,8,8h0c0,4.42-3.58,8-8,8h0c-4.42,0-8-3.58-8-8ZM2121.2,908c0-4.42,3.58-8,8-8h0c4.42,0,8,3.58,8,8h0c0,4.42-3.58,8-8,8h0c-4.42,0-8-3.58-8-8ZM2030.98,908c0-4.42,3.58-8,8-8h0c4.41,0,8,3.58,8,8h0c0,4.42-3.59,8-8,8h0c-4.42,0-8-3.58-8-8ZM1940.75,908c0-4.42,3.58-8,8-8h0c4.42,0,8,3.58,8,8h0c0,4.42-3.58,8-8,8h0c-4.42,0-8-3.58-8-8ZM1850.52,908c0-4.42,3.59-8,8-8h0c4.42,0,8,3.58,8,8h0c0,4.42-3.58,8-8,8h0c-4.41,0-8-3.58-8-8ZM1760.3,908c0-4.42,3.58-8,8-8h0c4.42,0,8,3.58,8,8h0c0,4.42-3.58,8-8,8h0c-4.42,0-8-3.58-8-8ZM1670.07,908c0-4.42,3.58-8,8-8h0c4.42,0,8,3.58,8,8h0c0,4.42-3.58,8-8,8h0c-4.42,0-8-3.58-8-8ZM1579.84,908c0-4.42,3.59-8,8.01-8h0c4.41,0,8,3.58,8,8h0c0,4.42-3.59,8-8,8h0c-4.42,0-8.01-3.58-8.01-8ZM1489.62,908c0-4.42,3.58-8,8-8h0c4.42,0,8,3.58,8,8h0c0,4.42-3.58,8-8,8h0c-4.42,0-8-3.58-8-8ZM1399.39,908c0-4.42,3.59-8,8-8h0c4.42,0,8,3.58,8,8h0c0,4.42-3.58,8-8,8h0c-4.41,0-8-3.58-8-8ZM1309.17,908c0-4.42,3.58-8,8-8h0c4.42,0,8,3.58,8,8h0c0,4.42-3.58,8-8,8h0c-4.42,0-8-3.58-8-8ZM1218.94,908c0-4.42,3.58-8,8-8h0c4.42,0,8,3.58,8,8h0c0,4.42-3.58,8-8,8h0c-4.42,0-8-3.58-8-8ZM1128.71,908c0-4.42,3.59-8,8-8h0c4.42,0,8,3.58,8,8h0c0,4.42-3.58,8-8,8h0c-4.41,0-8-3.58-8-8ZM1038.49,908c0-4.42,3.58-8,8-8h0c4.42,0,8,3.58,8,8h0c0,4.42-3.58,8-8,8h0c-4.42,0-8-3.58-8-8ZM948.26,908c0-4.42,3.58-8,8-8h0c4.42,0,8,3.58,8,8h0c0,4.42-3.58,8-8,8h0c-4.42,0-8-3.58-8-8ZM858.04,908c0-4.42,3.58-8,8-8h0c4.41,0,8,3.58,8,8h0c0,4.42-3.59,8-8,8h0c-4.42,0-8-3.58-8-8ZM767.81,908c0-4.42,3.58-8,8-8h0c4.42,0,8,3.58,8,8h0c0,4.42-3.58,8-8,8h0c-4.42,0-8-3.58-8-8ZM677.58,908c0-4.42,3.59-8,8-8h0c4.42,0,8,3.58,8,8h0c0,4.42-3.58,8-8,8h0c-4.41,0-8-3.58-8-8ZM587.36,908c0-4.42,3.58-8,8-8h0c4.42,0,8,3.58,8,8h0c0,4.42-3.58,8-8,8h0c-4.42,0-8-3.58-8-8ZM497.13,908c0-4.42,3.58-8,8-8h0c4.42,0,8,3.58,8,8h0c0,4.42-3.58,8-8,8h0c-4.42,0-8-3.58-8-8ZM406.91,908c0-4.42,3.58-8,7.99-8h0c4.42,0,8.01,3.58,8.01,8h0c0,4.42-3.59,8-8.01,8h0c-4.41,0-7.99-3.58-7.99-8ZM316.68,908c0-4.42,3.58-8,8-8h0c4.42,0,8,3.58,8,8h0c0,4.42-3.58,8-8,8h0c-4.42,0-8-3.58-8-8ZM226.45,908c0-4.42,3.58-8,8-8h0c4.42,0,8,3.58,8,8h0c0,4.42-3.58,8-8,8h0c-4.42,0-8-3.58-8-8ZM136.23,908c0-4.42,3.58-8,8-8h0c4.42,0,8,3.58,8,8h0c0,4.42-3.58,8-8,8h0c-4.42,0-8-3.58-8-8Z"/>
      <path class="cls-1" d="M3211.92,916c-.52,0-1.05-.05-1.56-.16-.51-.1-1.02-.25-1.5-.45-.48-.2-.95-.45-1.38-.74-.44-.29-.85-.62-1.22-.99-1.49-1.49-2.34-3.55-2.34-5.66,0-.52.05-1.05.16-1.56.1-.51.25-1.02.45-1.5.2-.48.45-.95.74-1.38.29-.44.62-.85.99-1.22.37-.37.78-.7,1.22-.99.43-.29.9-.54,1.38-.74.48-.2.99-.35,1.5-.45,2.6-.53,5.36.32,7.22,2.18.37.37.7.78.99,1.22.29.43.54.9.74,1.38.2.48.35.99.45,1.5.11.51.16,1.04.16,1.56,0,2.11-.85,4.17-2.34,5.66-1.49,1.48-3.55,2.34-5.66,2.34Z"/>
    </g>
    <g>
      <path class="cls-1" d="M8,1006c-.52,0-1.05-.05-1.56-.16-.51-.1-1.02-.25-1.5-.46-.48-.19-.95-.44-1.38-.73-.44-.29-.85-.63-1.22-.99-.36-.37-.7-.78-.99-1.22-.29-.43-.54-.9-.74-1.38-.2-.48-.35-.99-.45-1.5-.11-.51-.16-1.04-.16-1.56s.05-1.05.16-1.56c.1-.51.25-1.02.45-1.5.2-.48.45-.95.74-1.38.29-.44.63-.85.99-1.22.37-.37.78-.7,1.22-.99.43-.29.9-.54,1.38-.74.48-.2.99-.35,1.5-.45,1.03-.21,2.09-.21,3.12,0,.51.1,1.02.25,1.5.45.48.2.95.45,1.38.74.44.29.85.62,1.22.99.37.37.7.78.99,1.22.29.43.54.9.74,1.38.2.48.35.99.45,1.5.11.51.16,1.04.16,1.56s-.05,1.05-.16,1.56c-.1.51-.25,1.02-.45,1.5-.2.48-.45.95-.74,1.38-.29.44-.62.85-.99,1.22-1.49,1.48-3.55,2.34-5.66,2.34Z"/>
      <path class="cls-1" d="M3067.69,998c0-4.42,3.58-8,8-8h0c4.42,0,8,3.58,8,8h0c0,4.42-3.58,8-8,8h0c-4.42,0-8-3.58-8-8ZM2977.46,998c0-4.42,3.59-8,8-8h0c4.42,0,8,3.58,8,8h0c0,4.42-3.58,8-8,8h0c-4.41,0-8-3.58-8-8ZM2887.24,998c0-4.42,3.58-8,8-8h0c4.42,0,8,3.58,8,8h0c0,4.42-3.58,8-8,8h0c-4.42,0-8-3.58-8-8ZM2797.01,998c0-4.42,3.58-8,8-8h0c4.42,0,8,3.58,8,8h0c0,4.42-3.58,8-8,8h0c-4.42,0-8-3.58-8-8ZM2706.79,998c0-4.42,3.58-8,8-8h0c4.41,0,7.99,3.58,7.99,8h0c0,4.42-3.58,8-7.99,8h0c-4.42,0-8-3.58-8-8ZM2616.56,998c0-4.42,3.58-8,8-8h0c4.42,0,8,3.58,8,8h0c0,4.42-3.58,8-8,8h0c-4.42,0-8-3.58-8-8ZM2526.33,998c0-4.42,3.59-8,8-8h0c4.42,0,8,3.58,8,8h0c0,4.42-3.58,8-8,8h0c-4.41,0-8-3.58-8-8ZM2436.11,998c0-4.42,3.58-8,8-8h0c4.41,0,8,3.58,8,8h0c0,4.42-3.59,8-8,8h0c-4.42,0-8-3.58-8-8ZM2345.88,998c0-4.42,3.58-8,8-8h0c4.42,0,8,3.58,8,8h0c0,4.42-3.58,8-8,8h0c-4.42,0-8-3.58-8-8ZM2255.66,998c0-4.42,3.58-8,8-8h0c4.41,0,7.99,3.58,7.99,8h0c0,4.42-3.58,8-7.99,8h0c-4.42,0-8-3.58-8-8ZM2165.43,998c0-4.42,3.58-8,8-8h0c4.42,0,8,3.58,8,8h0c0,4.42-3.58,8-8,8h0c-4.42,0-8-3.58-8-8ZM2075.2,998c0-4.42,3.58-8,8-8h0c4.42,0,8,3.58,8,8h0c0,4.42-3.58,8-8,8h0c-4.42,0-8-3.58-8-8ZM1984.98,998c0-4.42,3.58-8,8-8h0c4.42,0,8,3.58,8,8h0c0,4.42-3.58,8-8,8h0c-4.42,0-8-3.58-8-8ZM1894.75,998c0-4.42,3.58-8,8-8h0c4.42,0,8,3.58,8,8h0c0,4.42-3.58,8-8,8h0c-4.42,0-8-3.58-8-8ZM1804.52,998c0-4.42,3.59-8,8-8h0c4.42,0,8.01,3.58,8.01,8h0c0,4.42-3.59,8-8.01,8h0c-4.41,0-8-3.58-8-8ZM1714.3,998c0-4.42,3.58-8,8-8h0c4.42,0,8,3.58,8,8h0c0,4.42-3.58,8-8,8h0c-4.42,0-8-3.58-8-8ZM1624.07,998c0-4.42,3.58-8,8-8h0c4.42,0,8,3.58,8,8h0c0,4.42-3.58,8-8,8h0c-4.42,0-8-3.58-8-8ZM1533.85,998c0-4.42,3.58-8,7.99-8h0c4.42,0,8.01,3.58,8.01,8h0c0,4.42-3.59,8-8.01,8h0c-4.41,0-7.99-3.58-7.99-8ZM1443.62,998c0-4.42,3.58-8,8-8h0c4.42,0,8,3.58,8,8h0c0,4.42-3.58,8-8,8h0c-4.42,0-8-3.58-8-8ZM1353.39,998c0-4.42,3.59-8,8-8h0c4.42,0,8,3.58,8,8h0c0,4.42-3.58,8-8,8h0c-4.41,0-8-3.58-8-8ZM1263.17,998c0-4.42,3.58-8,8-8h0c4.41,0,8,3.58,8,8h0c0,4.42-3.59,8-8,8h0c-4.42,0-8-3.58-8-8ZM1172.94,998c0-4.42,3.58-8,8-8h0c4.42,0,8,3.58,8,8h0c0,4.42-3.58,8-8,8h0c-4.42,0-8-3.58-8-8ZM1082.72,998c0-4.42,3.58-8,8-8h0c4.41,0,7.99,3.58,7.99,8h0c0,4.42-3.58,8-7.99,8h0c-4.42,0-8-3.58-8-8ZM992.49,998c0-4.42,3.58-8,8-8h0c4.42,0,8,3.58,8,8h0c0,4.42-3.58,8-8,8h0c-4.42,0-8-3.58-8-8ZM902.26,998c0-4.42,3.58-8,8-8h0c4.42,0,8,3.58,8,8h0c0,4.42-3.58,8-8,8h0c-4.42,0-8-3.58-8-8ZM812.04,998c0-4.42,3.58-8,8-8h0c4.42,0,8,3.58,8,8h0c0,4.42-3.58,8-8,8h0c-4.42,0-8-3.58-8-8ZM721.81,998c0-4.42,3.58-8,8-8h0c4.42,0,8,3.58,8,8h0c0,4.42-3.58,8-8,8h0c-4.42,0-8-3.58-8-8ZM631.58,998c0-4.42,3.58-8,8-8h0c4.42,0,8,3.58,8,8h0c0,4.42-3.58,8-8,8h0c-4.42,0-8-3.58-8-8ZM541.36,998c0-4.42,3.58-8,8-8h0c4.42,0,8,3.58,8,8h0c0,4.42-3.58,8-8,8h0c-4.42,0-8-3.58-8-8ZM451.13,998c0-4.42,3.58-8,8-8h0c4.42,0,8,3.58,8,8h0c0,4.42-3.58,8-8,8h0c-4.42,0-8-3.58-8-8ZM360.9,998c0-4.42,3.59-8,8-8h0c4.42,0,8,3.58,8,8h0c0,4.42-3.58,8-8,8h0c-4.41,0-8-3.58-8-8ZM270.68,998c0-4.42,3.58-8,8-8h0c4.42,0,8,3.58,8,8h0c0,4.42-3.58,8-8,8h0c-4.42,0-8-3.58-8-8ZM180.45,998c0-4.42,3.59-8,8-8h0c4.42,0,8,3.58,8,8h0c0,4.42-3.58,8-8,8h0c-4.41,0-8-3.58-8-8ZM90.23,998c0-4.42,3.58-8,8-8h0c4.41,0,8,3.58,8,8h0c0,4.42-3.59,8-8,8h0c-4.42,0-8-3.58-8-8Z"/>
      <path class="cls-1" d="M3165.92,1006c-.52,0-1.05-.05-1.56-.16-.51-.1-1.02-.25-1.5-.45-.48-.2-.95-.45-1.38-.74-.44-.29-.85-.62-1.22-.99-1.49-1.49-2.34-3.56-2.34-5.66,0-.52.05-1.05.16-1.56.1-.51.25-1.02.45-1.5.2-.48.45-.95.74-1.38.29-.44.62-.85.99-1.22.37-.37.78-.7,1.22-.99.43-.29.9-.54,1.38-.74.48-.2.99-.35,1.5-.45,2.59-.53,5.36.33,7.21,2.18.37.37.71.78,1,1.22.29.43.54.9.74,1.38.2.48.35.99.45,1.5.11.51.16,1.04.16,1.56,0,2.1-.85,4.17-2.35,5.66-.36.37-.77.7-1.21.99-.43.29-.9.54-1.38.74-.48.2-.99.35-1.5.45-.51.11-1.04.16-1.56.16Z"/>
    </g>
  </g>
  <g>
    <g>
      <path class="cls-1" d="M54,736c-.52,0-1.05-.05-1.56-.16-.51-.1-1.02-.25-1.5-.45-.48-.2-.95-.45-1.38-.74-.44-.29-.85-.63-1.22-.99-.37-.37-.7-.78-.99-1.22-.29-.43-.54-.9-.74-1.38-.2-.48-.35-.99-.45-1.5-.11-.51-.16-1.04-.16-1.56s.05-1.05.16-1.56c.1-.51.25-1.02.45-1.5.2-.48.45-.95.74-1.38.29-.44.62-.85.99-1.22.37-.37.78-.7,1.22-.99.43-.29.9-.54,1.38-.74.48-.2.99-.35,1.5-.45,1.03-.21,2.09-.21,3.12,0,.51.1,1.02.25,1.5.45.48.2.95.45,1.38.74.44.29.85.62,1.22.99.37.37.7.78.99,1.22.29.43.54.9.74,1.38.2.48.35.99.45,1.5.11.51.16,1.04.16,1.56s-.05,1.05-.16,1.56c-.1.51-.25,1.02-.45,1.5-.2.48-.45.95-.74,1.38-.29.44-.62.85-.99,1.22-.37.36-.78.7-1.22.99-.43.29-.9.54-1.38.74-.48.2-.99.35-1.5.45-.51.11-1.04.16-1.56.16Z"/>
      <path class="cls-1" d="M3113.69,728c0-4.42,3.58-8,8-8h0c4.42,0,8,3.58,8,8h0c0,4.42-3.58,8-8,8h0c-4.42,0-8-3.58-8-8ZM3023.47,728c0-4.42,3.57-8,8-8h0c4.41,0,7.99,3.58,7.99,8h0c0,4.42-3.58,8-7.99,8h0c-4.43,0-8-3.58-8-8ZM2933.24,728c0-4.42,3.58-8,8-8h0c4.42,0,8,3.58,8,8h0c0,4.42-3.58,8-8,8h0c-4.42,0-8-3.58-8-8ZM2843.01,728c0-4.42,3.58-8,8-8h0c4.42,0,8,3.58,8,8h0c0,4.42-3.58,8-8,8h0c-4.42,0-8-3.58-8-8ZM2752.79,728c0-4.42,3.58-8,8-8h0c4.41,0,8,3.58,8,8h0c0,4.42-3.59,8-8,8h0c-4.42,0-8-3.58-8-8ZM2662.56,728c0-4.42,3.58-8,8-8h0c4.42,0,8,3.58,8,8h0c0,4.42-3.58,8-8,8h0c-4.42,0-8-3.58-8-8ZM2572.33,728c0-4.42,3.58-8,8-8h0c4.42,0,8,3.58,8,8h0c0,4.42-3.58,8-8,8h0c-4.42,0-8-3.58-8-8ZM2482.11,728c0-4.42,3.58-8,8-8h0c4.41,0,8,3.58,8,8h0c0,4.42-3.59,8-8,8h0c-4.42,0-8-3.58-8-8ZM2391.88,728c0-4.42,3.58-8,8-8h0c4.42,0,8,3.58,8,8h0c0,4.42-3.58,8-8,8h0c-4.42,0-8-3.58-8-8ZM2301.65,728c0-4.42,3.59-8,8.01-8h0c4.41,0,7.99,3.58,7.99,8h0c0,4.42-3.58,8-7.99,8h0c-4.42,0-8.01-3.58-8.01-8ZM2211.43,728c0-4.42,3.58-8,8-8h0c4.42,0,8,3.58,8,8h0c0,4.42-3.58,8-8,8h0c-4.42,0-8-3.58-8-8ZM2121.2,728c0-4.42,3.58-8,8-8h0c4.42,0,8,3.58,8,8h0c0,4.42-3.58,8-8,8h0c-4.42,0-8-3.58-8-8ZM2030.98,728c0-4.42,3.58-8,8-8h0c4.41,0,8,3.58,8,8h0c0,4.42-3.59,8-8,8h0c-4.42,0-8-3.58-8-8ZM1940.75,728c0-4.42,3.58-8,8-8h0c4.42,0,8,3.58,8,8h0c0,4.42-3.58,8-8,8h0c-4.42,0-8-3.58-8-8ZM1850.52,728c0-4.42,3.59-8,8-8h0c4.42,0,8,3.58,8,8h0c0,4.42-3.58,8-8,8h0c-4.41,0-8-3.58-8-8ZM1760.3,728c0-4.42,3.58-8,8-8h0c4.42,0,8,3.58,8,8h0c0,4.42-3.58,8-8,8h0c-4.42,0-8-3.58-8-8ZM1670.07,728c0-4.42,3.58-8,8-8h0c4.42,0,8,3.58,8,8h0c0,4.42-3.58,8-8,8h0c-4.42,0-8-3.58-8-8ZM1579.84,728c0-4.42,3.59-8,8.01-8h0c4.41,0,8,3.58,8,8h0c0,4.42-3.59,8-8,8h0c-4.42,0-8.01-3.58-8.01-8ZM1489.62,728c0-4.42,3.58-8,8-8h0c4.42,0,8,3.58,8,8h0c0,4.42-3.58,8-8,8h0c-4.42,0-8-3.58-8-8ZM1399.39,728c0-4.42,3.59-8,8-8h0c4.42,0,8,3.58,8,8h0c0,4.42-3.58,8-8,8h0c-4.41,0-8-3.58-8-8ZM1309.17,728c0-4.42,3.58-8,8-8h0c4.42,0,8,3.58,8,8h0c0,4.42-3.58,8-8,8h0c-4.42,0-8-3.58-8-8ZM1218.94,728c0-4.42,3.58-8,8-8h0c4.42,0,8,3.58,8,8h0c0,4.42-3.58,8-8,8h0c-4.42,0-8-3.58-8-8ZM1128.71,728c0-4.42,3.59-8,8-8h0c4.42,0,8,3.58,8,8h0c0,4.42-3.58,8-8,8h0c-4.41,0-8-3.58-8-8ZM1038.49,728c0-4.42,3.58-8,8-8h0c4.42,0,8,3.58,8,8h0c0,4.42-3.58,8-8,8h0c-4.42,0-8-3.58-8-8ZM948.26,728c0-4.42,3.58-8,8-8h0c4.42,0,8,3.58,8,8h0c0,4.42-3.58,8-8,8h0c-4.42,0-8-3.58-8-8ZM858.04,728c0-4.42,3.58-8,8-8h0c4.41,0,8,3.58,8,8h0c0,4.42-3.59,8-8,8h0c-4.42,0-8-3.58-8-8ZM767.81,728c0-4.42,3.58-8,8-8h0c4.42,0,8,3.58,8,8h0c0,4.42-3.58,8-8,8h0c-4.42,0-8-3.58-8-8ZM677.58,728c0-4.42,3.59-8,8-8h0c4.42,0,8,3.58,8,8h0c0,4.42-3.58,8-8,8h0c-4.41,0-8-3.58-8-8ZM587.36,728c0-4.42,3.58-8,8-8h0c4.42,0,8,3.58,8,8h0c0,4.42-3.58,8-8,8h0c-4.42,0-8-3.58-8-8ZM497.13,728c0-4.42,3.58-8,8-8h0c4.42,0,8,3.58,8,8h0c0,4.42-3.58,8-8,8h0c-4.42,0-8-3.58-8-8ZM406.91,728c0-4.42,3.58-8,7.99-8h0c4.42,0,8.01,3.58,8.01,8h0c0,4.42-3.59,8-8.01,8h0c-4.41,0-7.99-3.58-7.99-8ZM316.68,728c0-4.42,3.58-8,8-8h0c4.42,0,8,3.58,8,8h0c0,4.42-3.58,8-8,8h0c-4.42,0-8-3.58-8-8ZM226.45,728c0-4.42,3.58-8,8-8h0c4.42,0,8,3.58,8,8h0c0,4.42-3.58,8-8,8h0c-4.42,0-8-3.58-8-8ZM136.23,728c0-4.42,3.58-8,8-8h0c4.42,0,8,3.58,8,8h0c0,4.42-3.58,8-8,8h0c-4.42,0-8-3.58-8-8Z"/>
      <path class="cls-1" d="M3211.92,736c-.52,0-1.05-.05-1.56-.16-.51-.1-1.02-.25-1.5-.45-.48-.2-.95-.45-1.38-.74-.44-.29-.85-.62-1.22-.99-1.49-1.49-2.34-3.55-2.34-5.66,0-.52.05-1.05.16-1.56.1-.51.25-1.02.45-1.5.2-.48.45-.95.74-1.38.29-.44.62-.85.99-1.22.37-.36.78-.7,1.22-.99.43-.29.9-.54,1.38-.74.48-.2.99-.35,1.5-.45,2.6-.53,5.36.33,7.22,2.18.37.37.7.78.99,1.22.29.43.54.9.74,1.38s.35.99.45,1.5c.11.51.16,1.04.16,1.56,0,2.11-.85,4.17-2.34,5.66-1.49,1.49-3.55,2.34-5.66,2.34Z"/>
    </g>
    <g>
      <path class="cls-1" d="M8,826c-.52,0-1.05-.05-1.56-.16-.51-.1-1.02-.25-1.5-.45-.48-.2-.95-.45-1.38-.74-.44-.29-.85-.63-1.22-.99-.37-.37-.7-.78-.99-1.22-.29-.43-.54-.9-.74-1.38-.2-.48-.35-.99-.45-1.5-.11-.51-.16-1.04-.16-1.56s.05-1.05.16-1.56c.1-.51.25-1.02.45-1.5.2-.48.45-.95.74-1.38.29-.44.62-.85.99-1.22.37-.36.78-.7,1.22-.99.43-.29.9-.54,1.38-.74.48-.2.99-.35,1.5-.45,1.03-.21,2.09-.21,3.12,0,.51.1,1.02.25,1.5.45.48.2.95.45,1.38.74.44.29.85.63,1.22.99.37.37.7.78.99,1.22.29.43.54.9.74,1.38.2.48.35.99.45,1.5.11.51.16,1.04.16,1.56s-.05,1.05-.16,1.56c-.1.51-.25,1.02-.45,1.5-.2.48-.45.95-.74,1.38-.29.44-.62.85-.99,1.22-.37.36-.78.7-1.22.99-.43.29-.9.54-1.38.74-.48.2-.99.35-1.5.45-.51.11-1.04.16-1.56.16Z"/>
      <path class="cls-1" d="M3067.69,818c0-4.42,3.58-8,8-8h0c4.42,0,8,3.58,8,8h0c0,4.42-3.58,8-8,8h0c-4.42,0-8-3.58-8-8ZM2977.46,818c0-4.42,3.59-8,8-8h0c4.42,0,8,3.58,8,8h0c0,4.42-3.58,8-8,8h0c-4.41,0-8-3.58-8-8ZM2887.24,818c0-4.42,3.58-8,8-8h0c4.42,0,8,3.58,8,8h0c0,4.42-3.58,8-8,8h0c-4.42,0-8-3.58-8-8ZM2797.01,818c0-4.42,3.58-8,8-8h0c4.42,0,8,3.58,8,8h0c0,4.42-3.58,8-8,8h0c-4.42,0-8-3.58-8-8ZM2706.79,818c0-4.42,3.58-8,8-8h0c4.41,0,7.99,3.58,7.99,8h0c0,4.42-3.58,8-7.99,8h0c-4.42,0-8-3.58-8-8ZM2616.56,818c0-4.42,3.58-8,8-8h0c4.42,0,8,3.58,8,8h0c0,4.42-3.58,8-8,8h0c-4.42,0-8-3.58-8-8ZM2526.33,818c0-4.42,3.59-8,8-8h0c4.42,0,8,3.58,8,8h0c0,4.42-3.58,8-8,8h0c-4.41,0-8-3.58-8-8ZM2436.11,818c0-4.42,3.58-8,8-8h0c4.41,0,8,3.58,8,8h0c0,4.42-3.59,8-8,8h0c-4.42,0-8-3.58-8-8ZM2345.88,818c0-4.42,3.58-8,8-8h0c4.42,0,8,3.58,8,8h0c0,4.42-3.58,8-8,8h0c-4.42,0-8-3.58-8-8ZM2255.66,818c0-4.42,3.58-8,8-8h0c4.41,0,7.99,3.58,7.99,8h0c0,4.42-3.58,8-7.99,8h0c-4.42,0-8-3.58-8-8ZM2165.43,818c0-4.42,3.58-8,8-8h0c4.42,0,8,3.58,8,8h0c0,4.42-3.58,8-8,8h0c-4.42,0-8-3.58-8-8ZM2075.2,818c0-4.42,3.58-8,8-8h0c4.42,0,8,3.58,8,8h0c0,4.42-3.58,8-8,8h0c-4.42,0-8-3.58-8-8ZM1984.98,818c0-4.42,3.58-8,8-8h0c4.42,0,8,3.58,8,8h0c0,4.42-3.58,8-8,8h0c-4.42,0-8-3.58-8-8ZM1894.75,818c0-4.42,3.58-8,8-8h0c4.42,0,8,3.58,8,8h0c0,4.42-3.58,8-8,8h0c-4.42,0-8-3.58-8-8ZM1804.52,818c0-4.42,3.59-8,8-8h0c4.42,0,8.01,3.58,8.01,8h0c0,4.42-3.59,8-8.01,8h0c-4.41,0-8-3.58-8-8ZM1714.3,818c0-4.42,3.58-8,8-8h0c4.42,0,8,3.58,8,8h0c0,4.42-3.58,8-8,8h0c-4.42,0-8-3.58-8-8ZM1624.07,818c0-4.42,3.58-8,8-8h0c4.42,0,8,3.58,8,8h0c0,4.42-3.58,8-8,8h0c-4.42,0-8-3.58-8-8ZM1533.85,818c0-4.42,3.58-8,7.99-8h0c4.42,0,8.01,3.58,8.01,8h0c0,4.42-3.59,8-8.01,8h0c-4.41,0-7.99-3.58-7.99-8ZM1443.62,818c0-4.42,3.58-8,8-8h0c4.42,0,8,3.58,8,8h0c0,4.42-3.58,8-8,8h0c-4.42,0-8-3.58-8-8ZM1353.39,818c0-4.42,3.59-8,8-8h0c4.42,0,8,3.58,8,8h0c0,4.42-3.58,8-8,8h0c-4.41,0-8-3.58-8-8ZM1263.17,818c0-4.42,3.58-8,8-8h0c4.41,0,8,3.58,8,8h0c0,4.42-3.59,8-8,8h0c-4.42,0-8-3.58-8-8ZM1172.94,818c0-4.42,3.58-8,8-8h0c4.42,0,8,3.58,8,8h0c0,4.42-3.58,8-8,8h0c-4.42,0-8-3.58-8-8ZM1082.72,818c0-4.42,3.58-8,8-8h0c4.41,0,7.99,3.58,7.99,8h0c0,4.42-3.58,8-7.99,8h0c-4.42,0-8-3.58-8-8ZM992.49,818c0-4.42,3.58-8,8-8h0c4.42,0,8,3.58,8,8h0c0,4.42-3.58,8-8,8h0c-4.42,0-8-3.58-8-8ZM902.26,818c0-4.42,3.58-8,8-8h0c4.42,0,8,3.58,8,8h0c0,4.42-3.58,8-8,8h0c-4.42,0-8-3.58-8-8ZM812.04,818c0-4.42,3.58-8,8-8h0c4.42,0,8,3.58,8,8h0c0,4.42-3.58,8-8,8h0c-4.42,0-8-3.58-8-8ZM721.81,818c0-4.42,3.58-8,8-8h0c4.42,0,8,3.58,8,8h0c0,4.42-3.58,8-8,8h0c-4.42,0-8-3.58-8-8ZM631.58,818c0-4.42,3.58-8,8-8h0c4.42,0,8,3.58,8,8h0c0,4.42-3.58,8-8,8h0c-4.42,0-8-3.58-8-8ZM541.36,818c0-4.42,3.58-8,8-8h0c4.42,0,8,3.58,8,8h0c0,4.42-3.58,8-8,8h0c-4.42,0-8-3.58-8-8ZM451.13,818c0-4.42,3.58-8,8-8h0c4.42,0,8,3.58,8,8h0c0,4.42-3.58,8-8,8h0c-4.42,0-8-3.58-8-8ZM360.9,818c0-4.42,3.59-8,8-8h0c4.42,0,8,3.58,8,8h0c0,4.42-3.58,8-8,8h0c-4.41,0-8-3.58-8-8ZM270.68,818c0-4.42,3.58-8,8-8h0c4.42,0,8,3.58,8,8h0c0,4.42-3.58,8-8,8h0c-4.42,0-8-3.58-8-8ZM180.45,818c0-4.42,3.59-8,8-8h0c4.42,0,8,3.58,8,8h0c0,4.42-3.58,8-8,8h0c-4.41,0-8-3.58-8-8ZM90.23,818c0-4.42,3.58-8,8-8h0c4.41,0,8,3.58,8,8h0c0,4.42-3.59,8-8,8h0c-4.42,0-8-3.58-8-8Z"/>
      <path class="cls-1" d="M3165.92,826c-.52,0-1.05-.05-1.56-.16-.51-.1-1.02-.25-1.5-.45-.48-.2-.95-.45-1.38-.74-.44-.29-.85-.62-1.22-.99-.37-.37-.7-.78-.99-1.22-.29-.43-.54-.9-.74-1.38-.2-.48-.35-.99-.45-1.5-.11-.51-.16-1.04-.16-1.56,0-2.1.85-4.17,2.34-5.66.37-.37.78-.7,1.22-.99.43-.29.9-.54,1.38-.74.48-.2.99-.35,1.5-.45,1.03-.21,2.09-.21,3.12,0,.51.1,1.02.25,1.5.45.48.2.95.45,1.38.74.44.29.85.62,1.21.99,1.5,1.49,2.35,3.55,2.35,5.66,0,.52-.05,1.05-.16,1.56-.1.51-.25,1.02-.45,1.5s-.45.95-.74,1.38c-.29.44-.63.85-1,1.22-.36.37-.77.7-1.21.99-.43.29-.9.54-1.38.74-.48.2-.99.35-1.5.45-.51.11-1.04.16-1.56.16Z"/>
    </g>
  </g>
  <g>
    <g>
      <path class="cls-1" d="M54,556c-2.1,0-4.17-.85-5.66-2.34-.37-.37-.7-.78-.99-1.22-.29-.43-.54-.9-.74-1.38-.2-.48-.35-.99-.45-1.5-.11-.51-.16-1.04-.16-1.56,0-2.1.85-4.17,2.34-5.66.37-.37.78-.7,1.22-.99.43-.29.9-.54,1.38-.74.48-.2.99-.35,1.5-.45,1.03-.21,2.09-.21,3.12,0,.51.1,1.02.25,1.5.45.48.2.95.45,1.38.74.44.29.85.62,1.22.99,1.49,1.49,2.34,3.56,2.34,5.66,0,.52-.05,1.05-.16,1.56-.1.51-.25,1.02-.45,1.5-.2.48-.45.95-.74,1.38-.29.44-.63.85-.99,1.22-.37.36-.78.7-1.22.99-.43.29-.9.54-1.38.74-.48.2-.99.35-1.5.45-.51.11-1.04.16-1.56.16Z"/>
      <path class="cls-1" d="M3113.69,548c0-4.42,3.58-8,8-8h0c4.42,0,8,3.58,8,8h0c0,4.42-3.58,8-8,8h0c-4.42,0-8-3.58-8-8ZM3023.47,548c0-4.42,3.57-8,8-8h0c4.41,0,7.99,3.58,7.99,8h0c0,4.42-3.58,8-7.99,8h0c-4.43,0-8-3.58-8-8ZM2933.24,548c0-4.42,3.58-8,8-8h0c4.42,0,8,3.58,8,8h0c0,4.42-3.58,8-8,8h0c-4.42,0-8-3.58-8-8ZM2843.01,548c0-4.42,3.58-8,8-8h0c4.42,0,8,3.58,8,8h0c0,4.42-3.58,8-8,8h0c-4.42,0-8-3.58-8-8ZM2752.79,548c0-4.42,3.58-8,8-8h0c4.41,0,8,3.58,8,8h0c0,4.42-3.59,8-8,8h0c-4.42,0-8-3.58-8-8ZM2662.56,548c0-4.42,3.58-8,8-8h0c4.42,0,8,3.58,8,8h0c0,4.42-3.58,8-8,8h0c-4.42,0-8-3.58-8-8ZM2572.33,548c0-4.42,3.58-8,8-8h0c4.42,0,8,3.58,8,8h0c0,4.42-3.58,8-8,8h0c-4.42,0-8-3.58-8-8ZM2482.11,548c0-4.42,3.58-8,8-8h0c4.41,0,8,3.58,8,8h0c0,4.42-3.59,8-8,8h0c-4.42,0-8-3.58-8-8ZM2391.88,548c0-4.42,3.58-8,8-8h0c4.42,0,8,3.58,8,8h0c0,4.42-3.58,8-8,8h0c-4.42,0-8-3.58-8-8ZM2301.65,548c0-4.42,3.59-8,8.01-8h0c4.41,0,7.99,3.58,7.99,8h0c0,4.42-3.58,8-7.99,8h0c-4.42,0-8.01-3.58-8.01-8ZM2211.43,548c0-4.42,3.58-8,8-8h0c4.42,0,8,3.58,8,8h0c0,4.42-3.58,8-8,8h0c-4.42,0-8-3.58-8-8ZM2121.2,548c0-4.42,3.58-8,8-8h0c4.42,0,8,3.58,8,8h0c0,4.42-3.58,8-8,8h0c-4.42,0-8-3.58-8-8ZM2030.98,548c0-4.42,3.58-8,8-8h0c4.41,0,8,3.58,8,8h0c0,4.42-3.59,8-8,8h0c-4.42,0-8-3.58-8-8ZM1940.75,548c0-4.42,3.58-8,8-8h0c4.42,0,8,3.58,8,8h0c0,4.42-3.58,8-8,8h0c-4.42,0-8-3.58-8-8ZM1850.52,548c0-4.42,3.59-8,8-8h0c4.42,0,8,3.58,8,8h0c0,4.42-3.58,8-8,8h0c-4.41,0-8-3.58-8-8ZM1760.3,548c0-4.42,3.58-8,8-8h0c4.42,0,8,3.58,8,8h0c0,4.42-3.58,8-8,8h0c-4.42,0-8-3.58-8-8ZM1670.07,548c0-4.42,3.58-8,8-8h0c4.42,0,8,3.58,8,8h0c0,4.42-3.58,8-8,8h0c-4.42,0-8-3.58-8-8ZM1579.84,548c0-4.42,3.59-8,8.01-8h0c4.41,0,8,3.58,8,8h0c0,4.42-3.59,8-8,8h0c-4.42,0-8.01-3.58-8.01-8ZM1489.62,548c0-4.42,3.58-8,8-8h0c4.42,0,8,3.58,8,8h0c0,4.42-3.58,8-8,8h0c-4.42,0-8-3.58-8-8ZM1399.39,548c0-4.42,3.59-8,8-8h0c4.42,0,8,3.58,8,8h0c0,4.42-3.58,8-8,8h0c-4.41,0-8-3.58-8-8ZM1309.17,548c0-4.42,3.58-8,8-8h0c4.42,0,8,3.58,8,8h0c0,4.42-3.58,8-8,8h0c-4.42,0-8-3.58-8-8ZM1218.94,548c0-4.42,3.58-8,8-8h0c4.42,0,8,3.58,8,8h0c0,4.42-3.58,8-8,8h0c-4.42,0-8-3.58-8-8ZM1128.71,548c0-4.42,3.59-8,8-8h0c4.42,0,8,3.58,8,8h0c0,4.42-3.58,8-8,8h0c-4.41,0-8-3.58-8-8ZM1038.49,548c0-4.42,3.58-8,8-8h0c4.42,0,8,3.58,8,8h0c0,4.42-3.58,8-8,8h0c-4.42,0-8-3.58-8-8ZM948.26,548c0-4.42,3.58-8,8-8h0c4.42,0,8,3.58,8,8h0c0,4.42-3.58,8-8,8h0c-4.42,0-8-3.58-8-8ZM858.04,548c0-4.42,3.58-8,8-8h0c4.41,0,8,3.58,8,8h0c0,4.42-3.59,8-8,8h0c-4.42,0-8-3.58-8-8ZM767.81,548c0-4.42,3.58-8,8-8h0c4.42,0,8,3.58,8,8h0c0,4.42-3.58,8-8,8h0c-4.42,0-8-3.58-8-8ZM677.58,548c0-4.42,3.59-8,8-8h0c4.42,0,8,3.58,8,8h0c0,4.42-3.58,8-8,8h0c-4.41,0-8-3.58-8-8ZM587.36,548c0-4.42,3.58-8,8-8h0c4.42,0,8,3.58,8,8h0c0,4.42-3.58,8-8,8h0c-4.42,0-8-3.58-8-8ZM497.13,548c0-4.42,3.58-8,8-8h0c4.42,0,8,3.58,8,8h0c0,4.42-3.58,8-8,8h0c-4.42,0-8-3.58-8-8ZM406.91,548c0-4.42,3.58-8,7.99-8h0c4.42,0,8.01,3.58,8.01,8h0c0,4.42-3.59,8-8.01,8h0c-4.41,0-7.99-3.58-7.99-8ZM316.68,548c0-4.42,3.58-8,8-8h0c4.42,0,8,3.58,8,8h0c0,4.42-3.58,8-8,8h0c-4.42,0-8-3.58-8-8ZM226.45,548c0-4.42,3.58-8,8-8h0c4.42,0,8,3.58,8,8h0c0,4.42-3.58,8-8,8h0c-4.42,0-8-3.58-8-8ZM136.23,548c0-4.42,3.58-8,8-8h0c4.42,0,8,3.58,8,8h0c0,4.42-3.58,8-8,8h0c-4.42,0-8-3.58-8-8Z"/>
      <path class="cls-1" d="M3211.92,556c-.52,0-1.05-.05-1.56-.16-.51-.1-1.02-.25-1.5-.45-.48-.2-.95-.45-1.38-.74-.44-.29-.85-.63-1.22-.99-.37-.37-.7-.78-.99-1.22-.29-.43-.54-.9-.74-1.38-.2-.48-.35-.99-.45-1.5-.11-.51-.16-1.04-.16-1.56,0-2.11.85-4.17,2.34-5.66.37-.37.78-.7,1.22-.99.43-.29.9-.54,1.38-.74.48-.2.99-.35,1.5-.45,1.03-.21,2.09-.21,3.12,0,.51.1,1.02.25,1.5.45.48.2.95.45,1.38.74.44.29.85.62,1.22.99,1.49,1.49,2.34,3.55,2.34,5.66,0,.52-.05,1.05-.16,1.56-.1.51-.25,1.02-.45,1.5s-.45.95-.74,1.38c-.29.44-.62.85-.99,1.22-.37.36-.78.7-1.22.99-.43.29-.9.54-1.38.74-.48.2-.99.35-1.5.45-.51.11-1.04.16-1.56.16Z"/>
    </g>
    <g>
      <path class="cls-1" d="M8,646c-.52,0-1.05-.05-1.56-.16-.51-.1-1.02-.25-1.5-.45-.48-.2-.95-.45-1.38-.74-.44-.29-.85-.63-1.22-.99-.37-.37-.7-.78-.99-1.22-.29-.43-.54-.9-.74-1.38-.2-.48-.35-.99-.45-1.5-.11-.51-.16-1.04-.16-1.56s.05-1.05.16-1.56c.1-.51.25-1.02.45-1.5.2-.48.45-.95.74-1.38.29-.44.62-.85.99-1.22,1.49-1.49,3.55-2.34,5.66-2.34s4.17.85,5.66,2.34c.37.37.7.78.99,1.22.29.43.54.9.74,1.38.2.48.35.99.45,1.5.11.51.16,1.04.16,1.56s-.05,1.05-.16,1.56c-.1.51-.25,1.02-.45,1.5-.2.48-.45.95-.74,1.38-.29.44-.62.85-.99,1.22-.37.36-.78.7-1.22.99-.43.29-.9.54-1.38.74-.48.2-.99.35-1.5.45-.51.11-1.04.16-1.56.16Z"/>
      <path class="cls-1" d="M3067.69,638c0-4.42,3.58-8,8-8h0c4.42,0,8,3.58,8,8h0c0,4.42-3.58,8-8,8h0c-4.42,0-8-3.58-8-8ZM2977.46,638c0-4.42,3.59-8,8-8h0c4.42,0,8,3.58,8,8h0c0,4.42-3.58,8-8,8h0c-4.41,0-8-3.58-8-8ZM2887.24,638c0-4.42,3.58-8,8-8h0c4.42,0,8,3.58,8,8h0c0,4.42-3.58,8-8,8h0c-4.42,0-8-3.58-8-8ZM2797.01,638c0-4.42,3.58-8,8-8h0c4.42,0,8,3.58,8,8h0c0,4.42-3.58,8-8,8h0c-4.42,0-8-3.58-8-8ZM2706.79,638c0-4.42,3.58-8,8-8h0c4.41,0,7.99,3.58,7.99,8h0c0,4.42-3.58,8-7.99,8h0c-4.42,0-8-3.58-8-8ZM2616.56,638c0-4.42,3.58-8,8-8h0c4.42,0,8,3.58,8,8h0c0,4.42-3.58,8-8,8h0c-4.42,0-8-3.58-8-8ZM2526.33,638c0-4.42,3.59-8,8-8h0c4.42,0,8,3.58,8,8h0c0,4.42-3.58,8-8,8h0c-4.41,0-8-3.58-8-8ZM2436.11,638c0-4.42,3.58-8,8-8h0c4.41,0,8,3.58,8,8h0c0,4.42-3.59,8-8,8h0c-4.42,0-8-3.58-8-8ZM2345.88,638c0-4.42,3.58-8,8-8h0c4.42,0,8,3.58,8,8h0c0,4.42-3.58,8-8,8h0c-4.42,0-8-3.58-8-8ZM2255.66,638c0-4.42,3.58-8,8-8h0c4.41,0,7.99,3.58,7.99,8h0c0,4.42-3.58,8-7.99,8h0c-4.42,0-8-3.58-8-8ZM2165.43,638c0-4.42,3.58-8,8-8h0c4.42,0,8,3.58,8,8h0c0,4.42-3.58,8-8,8h0c-4.42,0-8-3.58-8-8ZM2075.2,638c0-4.42,3.58-8,8-8h0c4.42,0,8,3.58,8,8h0c0,4.42-3.58,8-8,8h0c-4.42,0-8-3.58-8-8ZM1984.98,638c0-4.42,3.58-8,8-8h0c4.42,0,8,3.58,8,8h0c0,4.42-3.58,8-8,8h0c-4.42,0-8-3.58-8-8ZM1894.75,638c0-4.42,3.58-8,8-8h0c4.42,0,8,3.58,8,8h0c0,4.42-3.58,8-8,8h0c-4.42,0-8-3.58-8-8ZM1804.52,638c0-4.42,3.59-8,8-8h0c4.42,0,8.01,3.58,8.01,8h0c0,4.42-3.59,8-8.01,8h0c-4.41,0-8-3.58-8-8ZM1714.3,638c0-4.42,3.58-8,8-8h0c4.42,0,8,3.58,8,8h0c0,4.42-3.58,8-8,8h0c-4.42,0-8-3.58-8-8ZM1624.07,638c0-4.42,3.58-8,8-8h0c4.42,0,8,3.58,8,8h0c0,4.42-3.58,8-8,8h0c-4.42,0-8-3.58-8-8ZM1533.85,638c0-4.42,3.58-8,7.99-8h0c4.42,0,8.01,3.58,8.01,8h0c0,4.42-3.59,8-8.01,8h0c-4.41,0-7.99-3.58-7.99-8ZM1443.62,638c0-4.42,3.58-8,8-8h0c4.42,0,8,3.58,8,8h0c0,4.42-3.58,8-8,8h0c-4.42,0-8-3.58-8-8ZM1353.39,638c0-4.42,3.59-8,8-8h0c4.42,0,8,3.58,8,8h0c0,4.42-3.58,8-8,8h0c-4.41,0-8-3.58-8-8ZM1263.17,638c0-4.42,3.58-8,8-8h0c4.41,0,8,3.58,8,8h0c0,4.42-3.59,8-8,8h0c-4.42,0-8-3.58-8-8ZM1172.94,638c0-4.42,3.58-8,8-8h0c4.42,0,8,3.58,8,8h0c0,4.42-3.58,8-8,8h0c-4.42,0-8-3.58-8-8ZM1082.72,638c0-4.42,3.58-8,8-8h0c4.41,0,7.99,3.58,7.99,8h0c0,4.42-3.58,8-7.99,8h0c-4.42,0-8-3.58-8-8ZM992.49,638c0-4.42,3.58-8,8-8h0c4.42,0,8,3.58,8,8h0c0,4.42-3.58,8-8,8h0c-4.42,0-8-3.58-8-8ZM902.26,638c0-4.42,3.58-8,8-8h0c4.42,0,8,3.58,8,8h0c0,4.42-3.58,8-8,8h0c-4.42,0-8-3.58-8-8ZM812.04,638c0-4.42,3.58-8,8-8h0c4.42,0,8,3.58,8,8h0c0,4.42-3.58,8-8,8h0c-4.42,0-8-3.58-8-8ZM721.81,638c0-4.42,3.58-8,8-8h0c4.42,0,8,3.58,8,8h0c0,4.42-3.58,8-8,8h0c-4.42,0-8-3.58-8-8ZM631.58,638c0-4.42,3.58-8,8-8h0c4.42,0,8,3.58,8,8h0c0,4.42-3.58,8-8,8h0c-4.42,0-8-3.58-8-8ZM541.36,638c0-4.42,3.58-8,8-8h0c4.42,0,8,3.58,8,8h0c0,4.42-3.58,8-8,8h0c-4.42,0-8-3.58-8-8ZM451.13,638c0-4.42,3.58-8,8-8h0c4.42,0,8,3.58,8,8h0c0,4.42-3.58,8-8,8h0c-4.42,0-8-3.58-8-8ZM360.9,638c0-4.42,3.59-8,8-8h0c4.42,0,8,3.58,8,8h0c0,4.42-3.58,8-8,8h0c-4.41,0-8-3.58-8-8ZM270.68,638c0-4.42,3.58-8,8-8h0c4.42,0,8,3.58,8,8h0c0,4.42-3.58,8-8,8h0c-4.42,0-8-3.58-8-8ZM180.45,638c0-4.42,3.59-8,8-8h0c4.42,0,8,3.58,8,8h0c0,4.42-3.58,8-8,8h0c-4.41,0-8-3.58-8-8ZM90.23,638c0-4.42,3.58-8,8-8h0c4.41,0,8,3.58,8,8h0c0,4.42-3.59,8-8,8h0c-4.42,0-8-3.58-8-8Z"/>
      <path class="cls-1" d="M3165.92,646c-.52,0-1.05-.05-1.56-.16-.51-.1-1.02-.25-1.5-.45-.48-.2-.95-.45-1.38-.74-.44-.29-.85-.62-1.22-.99-.37-.37-.7-.78-.99-1.22-.29-.43-.54-.9-.74-1.38-.2-.48-.35-.99-.45-1.5-.11-.51-.16-1.04-.16-1.56,0-2.1.85-4.17,2.34-5.66.37-.37.78-.7,1.22-.99.43-.29.9-.54,1.38-.74.48-.2.99-.35,1.5-.45,1.03-.21,2.09-.21,3.12,0,.51.1,1.02.25,1.5.45.48.2.95.45,1.38.74.44.29.85.62,1.21.99,1.5,1.49,2.35,3.55,2.35,5.66,0,.52-.05,1.05-.16,1.56-.1.51-.25,1.02-.45,1.5s-.45.95-.74,1.38c-.29.44-.63.85-1,1.22-.36.37-.77.7-1.21.99-.43.29-.9.54-1.38.74-.48.2-.99.35-1.5.45-.51.11-1.04.16-1.56.16Z"/>
    </g>
  </g>
  <g>
    <g>
      <path class="cls-1" d="M54,376c-.52,0-1.05-.05-1.56-.16-.51-.1-1.02-.25-1.5-.45-.48-.2-.95-.45-1.38-.74-.44-.29-.85-.62-1.22-.99-1.49-1.49-2.34-3.55-2.34-5.66,0-.52.05-1.05.16-1.56.1-.51.25-1.02.45-1.5.2-.48.45-.95.74-1.38.29-.44.62-.85.99-1.22.37-.36.78-.7,1.22-.99.43-.29.9-.54,1.38-.74.48-.2.99-.35,1.5-.45,1.03-.21,2.09-.21,3.12,0,.51.1,1.02.25,1.5.45.48.2.95.45,1.38.74.44.29.85.63,1.22.99,1.49,1.49,2.34,3.56,2.34,5.66s-.85,4.17-2.34,5.66c-.37.37-.78.7-1.22.99-.43.29-.9.54-1.38.74-.48.2-.99.35-1.5.45-.51.11-1.04.16-1.56.16Z"/>
      <path class="cls-1" d="M3113.69,368c0-4.42,3.58-8,8-8h0c4.42,0,8,3.58,8,8h0c0,4.42-3.58,8-8,8h0c-4.42,0-8-3.58-8-8ZM3023.47,368c0-4.42,3.57-8,8-8h0c4.41,0,7.99,3.58,7.99,8h0c0,4.42-3.58,8-7.99,8h0c-4.43,0-8-3.58-8-8ZM2933.24,368c0-4.42,3.58-8,8-8h0c4.42,0,8,3.58,8,8h0c0,4.42-3.58,8-8,8h0c-4.42,0-8-3.58-8-8ZM2843.01,368c0-4.42,3.58-8,8-8h0c4.42,0,8,3.58,8,8h0c0,4.42-3.58,8-8,8h0c-4.42,0-8-3.58-8-8ZM2752.79,368c0-4.42,3.58-8,8-8h0c4.41,0,8,3.58,8,8h0c0,4.42-3.59,8-8,8h0c-4.42,0-8-3.58-8-8ZM2662.56,368c0-4.42,3.58-8,8-8h0c4.42,0,8,3.58,8,8h0c0,4.42-3.58,8-8,8h0c-4.42,0-8-3.58-8-8ZM2572.33,368c0-4.42,3.58-8,8-8h0c4.42,0,8,3.58,8,8h0c0,4.42-3.58,8-8,8h0c-4.42,0-8-3.58-8-8ZM2482.11,368c0-4.42,3.58-8,8-8h0c4.41,0,8,3.58,8,8h0c0,4.42-3.59,8-8,8h0c-4.42,0-8-3.58-8-8ZM2391.88,368c0-4.42,3.58-8,8-8h0c4.42,0,8,3.58,8,8h0c0,4.42-3.58,8-8,8h0c-4.42,0-8-3.58-8-8ZM2301.65,368c0-4.42,3.59-8,8.01-8h0c4.41,0,7.99,3.58,7.99,8h0c0,4.42-3.58,8-7.99,8h0c-4.42,0-8.01-3.58-8.01-8ZM2211.43,368c0-4.42,3.58-8,8-8h0c4.42,0,8,3.58,8,8h0c0,4.42-3.58,8-8,8h0c-4.42,0-8-3.58-8-8ZM2121.2,368c0-4.42,3.58-8,8-8h0c4.42,0,8,3.58,8,8h0c0,4.42-3.58,8-8,8h0c-4.42,0-8-3.58-8-8ZM2030.98,368c0-4.42,3.58-8,8-8h0c4.41,0,8,3.58,8,8h0c0,4.42-3.59,8-8,8h0c-4.42,0-8-3.58-8-8ZM1940.75,368c0-4.42,3.58-8,8-8h0c4.42,0,8,3.58,8,8h0c0,4.42-3.58,8-8,8h0c-4.42,0-8-3.58-8-8ZM1850.52,368c0-4.42,3.59-8,8-8h0c4.42,0,8,3.58,8,8h0c0,4.42-3.58,8-8,8h0c-4.41,0-8-3.58-8-8ZM1760.3,368c0-4.42,3.58-8,8-8h0c4.42,0,8,3.58,8,8h0c0,4.42-3.58,8-8,8h0c-4.42,0-8-3.58-8-8ZM1670.07,368c0-4.42,3.58-8,8-8h0c4.42,0,8,3.58,8,8h0c0,4.42-3.58,8-8,8h0c-4.42,0-8-3.58-8-8ZM1579.84,368c0-4.42,3.59-8,8.01-8h0c4.41,0,8,3.58,8,8h0c0,4.42-3.59,8-8,8h0c-4.42,0-8.01-3.58-8.01-8ZM1489.62,368c0-4.42,3.58-8,8-8h0c4.42,0,8,3.58,8,8h0c0,4.42-3.58,8-8,8h0c-4.42,0-8-3.58-8-8ZM1399.39,368c0-4.42,3.59-8,8-8h0c4.42,0,8,3.58,8,8h0c0,4.42-3.58,8-8,8h0c-4.41,0-8-3.58-8-8ZM1309.17,368c0-4.42,3.58-8,8-8h0c4.42,0,8,3.58,8,8h0c0,4.42-3.58,8-8,8h0c-4.42,0-8-3.58-8-8ZM1218.94,368c0-4.42,3.58-8,8-8h0c4.42,0,8,3.58,8,8h0c0,4.42-3.58,8-8,8h0c-4.42,0-8-3.58-8-8ZM1128.71,368c0-4.42,3.59-8,8-8h0c4.42,0,8,3.58,8,8h0c0,4.42-3.58,8-8,8h0c-4.41,0-8-3.58-8-8ZM1038.49,368c0-4.42,3.58-8,8-8h0c4.42,0,8,3.58,8,8h0c0,4.42-3.58,8-8,8h0c-4.42,0-8-3.58-8-8ZM948.26,368c0-4.42,3.58-8,8-8h0c4.42,0,8,3.58,8,8h0c0,4.42-3.58,8-8,8h0c-4.42,0-8-3.58-8-8ZM858.04,368c0-4.42,3.58-8,8-8h0c4.41,0,8,3.58,8,8h0c0,4.42-3.59,8-8,8h0c-4.42,0-8-3.58-8-8ZM767.81,368c0-4.42,3.58-8,8-8h0c4.42,0,8,3.58,8,8h0c0,4.42-3.58,8-8,8h0c-4.42,0-8-3.58-8-8ZM677.58,368c0-4.42,3.59-8,8-8h0c4.42,0,8,3.58,8,8h0c0,4.42-3.58,8-8,8h0c-4.41,0-8-3.58-8-8ZM587.36,368c0-4.42,3.58-8,8-8h0c4.42,0,8,3.58,8,8h0c0,4.42-3.58,8-8,8h0c-4.42,0-8-3.58-8-8ZM497.13,368c0-4.42,3.58-8,8-8h0c4.42,0,8,3.58,8,8h0c0,4.42-3.58,8-8,8h0c-4.42,0-8-3.58-8-8ZM406.91,368c0-4.42,3.58-8,7.99-8h0c4.42,0,8.01,3.58,8.01,8h0c0,4.42-3.59,8-8.01,8h0c-4.41,0-7.99-3.58-7.99-8ZM316.68,368c0-4.42,3.58-8,8-8h0c4.42,0,8,3.58,8,8h0c0,4.42-3.58,8-8,8h0c-4.42,0-8-3.58-8-8ZM226.45,368c0-4.42,3.58-8,8-8h0c4.42,0,8,3.58,8,8h0c0,4.42-3.58,8-8,8h0c-4.42,0-8-3.58-8-8ZM136.23,368c0-4.42,3.58-8,8-8h0c4.42,0,8,3.58,8,8h0c0,4.42-3.58,8-8,8h0c-4.42,0-8-3.58-8-8Z"/>
      <path class="cls-1" d="M3211.92,376c-.52,0-1.05-.05-1.56-.16-.51-.1-1.02-.25-1.5-.45-.48-.2-.95-.45-1.38-.74-.44-.29-.85-.62-1.22-.99s-.7-.78-.99-1.22c-.29-.43-.54-.9-.74-1.38-.2-.48-.35-.99-.45-1.5-.11-.51-.16-1.04-.16-1.56,0-2.1.85-4.17,2.34-5.66.37-.37.78-.7,1.22-.99.43-.29.9-.54,1.38-.74.48-.2.99-.35,1.5-.45,2.6-.53,5.36.32,7.22,2.18,1.49,1.49,2.34,3.55,2.34,5.66,0,.52-.05,1.05-.16,1.56-.1.51-.25,1.02-.45,1.5s-.45.95-.74,1.38c-.29.44-.62.85-.99,1.22-1.49,1.49-3.55,2.34-5.66,2.34Z"/>
    </g>
    <g>
      <path class="cls-1" d="M8,466c-.52,0-1.05-.05-1.56-.16-.51-.1-1.02-.25-1.5-.45-.48-.2-.95-.45-1.38-.74-.44-.29-.85-.63-1.22-.99-.37-.37-.7-.78-.99-1.22-.29-.43-.54-.9-.74-1.38-.2-.48-.35-.99-.45-1.5-.11-.51-.16-1.04-.16-1.56s.05-1.05.16-1.56c.1-.51.25-1.02.45-1.5.2-.48.45-.95.74-1.38.29-.44.62-.85.99-1.22.37-.37.78-.7,1.22-.99.43-.29.9-.54,1.38-.74.48-.2.99-.35,1.5-.45,1.03-.21,2.09-.21,3.12,0,.51.1,1.02.25,1.5.45.48.2.95.45,1.38.74.44.29.85.62,1.22.99.36.37.7.78.99,1.22.29.43.54.9.74,1.38.2.48.35.99.45,1.5.11.51.16,1.04.16,1.56s-.05,1.05-.16,1.56c-.1.51-.25,1.02-.45,1.5-.2.48-.45.95-.74,1.38-.29.44-.63.85-.99,1.22-.37.36-.78.7-1.22.99-.43.29-.9.54-1.38.74-.48.2-.99.35-1.5.45-.51.11-1.04.16-1.56.16Z"/>
      <path class="cls-1" d="M3067.69,458c0-4.42,3.58-8,8-8h0c4.42,0,8,3.58,8,8h0c0,4.42-3.58,8-8,8h0c-4.42,0-8-3.58-8-8ZM2977.46,458c0-4.42,3.59-8,8-8h0c4.42,0,8,3.58,8,8h0c0,4.42-3.58,8-8,8h0c-4.41,0-8-3.58-8-8ZM2887.24,458c0-4.42,3.58-8,8-8h0c4.42,0,8,3.58,8,8h0c0,4.42-3.58,8-8,8h0c-4.42,0-8-3.58-8-8ZM2797.01,458c0-4.42,3.58-8,8-8h0c4.42,0,8,3.58,8,8h0c0,4.42-3.58,8-8,8h0c-4.42,0-8-3.58-8-8ZM2706.79,458c0-4.42,3.58-8,8-8h0c4.41,0,7.99,3.58,7.99,8h0c0,4.42-3.58,8-7.99,8h0c-4.42,0-8-3.58-8-8ZM2616.56,458c0-4.42,3.58-8,8-8h0c4.42,0,8,3.58,8,8h0c0,4.42-3.58,8-8,8h0c-4.42,0-8-3.58-8-8ZM2526.33,458c0-4.42,3.59-8,8-8h0c4.42,0,8,3.58,8,8h0c0,4.42-3.58,8-8,8h0c-4.41,0-8-3.58-8-8ZM2436.11,458c0-4.42,3.58-8,8-8h0c4.41,0,8,3.58,8,8h0c0,4.42-3.59,8-8,8h0c-4.42,0-8-3.58-8-8ZM2345.88,458c0-4.42,3.58-8,8-8h0c4.42,0,8,3.58,8,8h0c0,4.42-3.58,8-8,8h0c-4.42,0-8-3.58-8-8ZM2255.66,458c0-4.42,3.58-8,8-8h0c4.41,0,7.99,3.58,7.99,8h0c0,4.42-3.58,8-7.99,8h0c-4.42,0-8-3.58-8-8ZM2165.43,458c0-4.42,3.58-8,8-8h0c4.42,0,8,3.58,8,8h0c0,4.42-3.58,8-8,8h0c-4.42,0-8-3.58-8-8ZM2075.2,458c0-4.42,3.58-8,8-8h0c4.42,0,8,3.58,8,8h0c0,4.42-3.58,8-8,8h0c-4.42,0-8-3.58-8-8ZM1984.98,458c0-4.42,3.58-8,8-8h0c4.42,0,8,3.58,8,8h0c0,4.42-3.58,8-8,8h0c-4.42,0-8-3.58-8-8ZM1894.75,458c0-4.42,3.58-8,8-8h0c4.42,0,8,3.58,8,8h0c0,4.42-3.58,8-8,8h0c-4.42,0-8-3.58-8-8ZM1804.52,458c0-4.42,3.59-8,8-8h0c4.42,0,8.01,3.58,8.01,8h0c0,4.42-3.59,8-8.01,8h0c-4.41,0-8-3.58-8-8ZM1714.3,458c0-4.42,3.58-8,8-8h0c4.42,0,8,3.58,8,8h0c0,4.42-3.58,8-8,8h0c-4.42,0-8-3.58-8-8ZM1624.07,458c0-4.42,3.58-8,8-8h0c4.42,0,8,3.58,8,8h0c0,4.42-3.58,8-8,8h0c-4.42,0-8-3.58-8-8ZM1533.85,458c0-4.42,3.58-8,7.99-8h0c4.42,0,8.01,3.58,8.01,8h0c0,4.42-3.59,8-8.01,8h0c-4.41,0-7.99-3.58-7.99-8ZM1443.62,458c0-4.42,3.58-8,8-8h0c4.42,0,8,3.58,8,8h0c0,4.42-3.58,8-8,8h0c-4.42,0-8-3.58-8-8ZM1353.39,458c0-4.42,3.59-8,8-8h0c4.42,0,8,3.58,8,8h0c0,4.42-3.58,8-8,8h0c-4.41,0-8-3.58-8-8ZM1263.17,458c0-4.42,3.58-8,8-8h0c4.41,0,8,3.58,8,8h0c0,4.42-3.59,8-8,8h0c-4.42,0-8-3.58-8-8ZM1172.94,458c0-4.42,3.58-8,8-8h0c4.42,0,8,3.58,8,8h0c0,4.42-3.58,8-8,8h0c-4.42,0-8-3.58-8-8ZM1082.72,458c0-4.42,3.58-8,8-8h0c4.41,0,7.99,3.58,7.99,8h0c0,4.42-3.58,8-7.99,8h0c-4.42,0-8-3.58-8-8ZM992.49,458c0-4.42,3.58-8,8-8h0c4.42,0,8,3.58,8,8h0c0,4.42-3.58,8-8,8h0c-4.42,0-8-3.58-8-8ZM902.26,458c0-4.42,3.58-8,8-8h0c4.42,0,8,3.58,8,8h0c0,4.42-3.58,8-8,8h0c-4.42,0-8-3.58-8-8ZM812.04,458c0-4.42,3.58-8,8-8h0c4.42,0,8,3.58,8,8h0c0,4.42-3.58,8-8,8h0c-4.42,0-8-3.58-8-8ZM721.81,458c0-4.42,3.58-8,8-8h0c4.42,0,8,3.58,8,8h0c0,4.42-3.58,8-8,8h0c-4.42,0-8-3.58-8-8ZM631.58,458c0-4.42,3.58-8,8-8h0c4.42,0,8,3.58,8,8h0c0,4.42-3.58,8-8,8h0c-4.42,0-8-3.58-8-8ZM541.36,458c0-4.42,3.58-8,8-8h0c4.42,0,8,3.58,8,8h0c0,4.42-3.58,8-8,8h0c-4.42,0-8-3.58-8-8ZM451.13,458c0-4.42,3.58-8,8-8h0c4.42,0,8,3.58,8,8h0c0,4.42-3.58,8-8,8h0c-4.42,0-8-3.58-8-8ZM360.9,458c0-4.42,3.59-8,8-8h0c4.42,0,8,3.58,8,8h0c0,4.42-3.58,8-8,8h0c-4.41,0-8-3.58-8-8ZM270.68,458c0-4.42,3.58-8,8-8h0c4.42,0,8,3.58,8,8h0c0,4.42-3.58,8-8,8h0c-4.42,0-8-3.58-8-8ZM180.45,458c0-4.42,3.59-8,8-8h0c4.42,0,8,3.58,8,8h0c0,4.42-3.58,8-8,8h0c-4.41,0-8-3.58-8-8ZM90.23,458c0-4.42,3.58-8,8-8h0c4.41,0,8,3.58,8,8h0c0,4.42-3.59,8-8,8h0c-4.42,0-8-3.58-8-8Z"/>
      <path class="cls-1" d="M3165.92,466c-.52,0-1.05-.05-1.56-.16-.51-.1-1.02-.25-1.5-.45-.48-.2-.95-.45-1.38-.74-.44-.29-.85-.62-1.22-.99s-.7-.78-.99-1.22c-.29-.43-.54-.9-.74-1.38-.2-.48-.35-.99-.45-1.5-.11-.51-.16-1.04-.16-1.56,0-2.1.85-4.17,2.34-5.66.37-.37.78-.7,1.22-.99.43-.29.9-.54,1.38-.74.48-.2.99-.35,1.5-.45,1.03-.21,2.09-.21,3.12,0,.51.1,1.02.25,1.5.45.48.2.95.45,1.38.74.44.29.85.62,1.21.99,1.5,1.49,2.35,3.55,2.35,5.66,0,.52-.05,1.05-.16,1.56-.1.51-.25,1.02-.45,1.5s-.45.95-.74,1.38c-.29.44-.63.85-1,1.22-.36.37-.77.7-1.21.99-.43.29-.9.54-1.38.74-.48.2-.99.35-1.5.45-.51.11-1.04.16-1.56.16Z"/>
    </g>
  </g>
  <g>
    <g>
      <path class="cls-1" d="M54,196c-.52,0-1.05-.05-1.56-.16-.51-.1-1.02-.25-1.5-.45-.48-.2-.95-.45-1.38-.74-.44-.29-.85-.62-1.22-.99-.37-.37-.7-.78-.99-1.22-.29-.43-.54-.9-.74-1.38-.2-.48-.35-.99-.45-1.5-.11-.51-.16-1.04-.16-1.56s.05-1.05.16-1.56c.1-.51.25-1.02.45-1.5.2-.48.45-.95.74-1.38.29-.44.62-.85.99-1.22.37-.36.78-.7,1.22-.99.43-.29.9-.54,1.38-.74.48-.2.99-.35,1.5-.45,1.03-.21,2.09-.21,3.12,0,.51.1,1.02.25,1.5.45.48.2.95.45,1.38.74.44.29.85.63,1.22.99.37.37.7.78.99,1.22.29.43.54.9.74,1.38.2.48.35.99.45,1.5.11.51.16,1.04.16,1.56s-.05,1.05-.16,1.56c-.1.51-.25,1.02-.45,1.5-.2.48-.45.95-.74,1.38-.29.44-.62.85-.99,1.22-.37.37-.78.7-1.22.99-.43.29-.9.54-1.38.74-.48.2-.99.35-1.5.45-.51.11-1.04.16-1.56.16Z"/>
      <path class="cls-1" d="M3113.69,188c0-4.42,3.58-8,8-8h0c4.42,0,8,3.58,8,8h0c0,4.42-3.58,8-8,8h0c-4.42,0-8-3.58-8-8ZM3023.47,188c0-4.42,3.57-8,8-8h0c4.41,0,7.99,3.58,7.99,8h0c0,4.42-3.58,8-7.99,8h0c-4.43,0-8-3.58-8-8ZM2933.24,188c0-4.42,3.58-8,8-8h0c4.42,0,8,3.58,8,8h0c0,4.42-3.58,8-8,8h0c-4.42,0-8-3.58-8-8ZM2843.01,188c0-4.42,3.58-8,8-8h0c4.42,0,8,3.58,8,8h0c0,4.42-3.58,8-8,8h0c-4.42,0-8-3.58-8-8ZM2752.79,188c0-4.42,3.58-8,8-8h0c4.41,0,8,3.58,8,8h0c0,4.42-3.59,8-8,8h0c-4.42,0-8-3.58-8-8ZM2662.56,188c0-4.42,3.58-8,8-8h0c4.42,0,8,3.58,8,8h0c0,4.42-3.58,8-8,8h0c-4.42,0-8-3.58-8-8ZM2572.33,188c0-4.42,3.58-8,8-8h0c4.42,0,8,3.58,8,8h0c0,4.42-3.58,8-8,8h0c-4.42,0-8-3.58-8-8ZM2482.11,188c0-4.42,3.58-8,8-8h0c4.41,0,8,3.58,8,8h0c0,4.42-3.59,8-8,8h0c-4.42,0-8-3.58-8-8ZM2391.88,188c0-4.42,3.58-8,8-8h0c4.42,0,8,3.58,8,8h0c0,4.42-3.58,8-8,8h0c-4.42,0-8-3.58-8-8ZM2301.65,188c0-4.42,3.59-8,8.01-8h0c4.41,0,7.99,3.58,7.99,8h0c0,4.42-3.58,8-7.99,8h0c-4.42,0-8.01-3.58-8.01-8ZM2211.43,188c0-4.42,3.58-8,8-8h0c4.42,0,8,3.58,8,8h0c0,4.42-3.58,8-8,8h0c-4.42,0-8-3.58-8-8ZM2121.2,188c0-4.42,3.58-8,8-8h0c4.42,0,8,3.58,8,8h0c0,4.42-3.58,8-8,8h0c-4.42,0-8-3.58-8-8ZM2030.98,188c0-4.42,3.58-8,8-8h0c4.41,0,8,3.58,8,8h0c0,4.42-3.59,8-8,8h0c-4.42,0-8-3.58-8-8ZM1940.75,188c0-4.42,3.58-8,8-8h0c4.42,0,8,3.58,8,8h0c0,4.42-3.58,8-8,8h0c-4.42,0-8-3.58-8-8ZM1850.52,188c0-4.42,3.59-8,8-8h0c4.42,0,8,3.58,8,8h0c0,4.42-3.58,8-8,8h0c-4.41,0-8-3.58-8-8ZM1760.3,188c0-4.42,3.58-8,8-8h0c4.42,0,8,3.58,8,8h0c0,4.42-3.58,8-8,8h0c-4.42,0-8-3.58-8-8ZM1670.07,188c0-4.42,3.58-8,8-8h0c4.42,0,8,3.58,8,8h0c0,4.42-3.58,8-8,8h0c-4.42,0-8-3.58-8-8ZM1579.84,188c0-4.42,3.59-8,8.01-8h0c4.41,0,8,3.58,8,8h0c0,4.42-3.59,8-8,8h0c-4.42,0-8.01-3.58-8.01-8ZM1489.62,188c0-4.42,3.58-8,8-8h0c4.42,0,8,3.58,8,8h0c0,4.42-3.58,8-8,8h0c-4.42,0-8-3.58-8-8ZM1399.39,188c0-4.42,3.59-8,8-8h0c4.42,0,8,3.58,8,8h0c0,4.42-3.58,8-8,8h0c-4.41,0-8-3.58-8-8ZM1309.17,188c0-4.42,3.58-8,8-8h0c4.42,0,8,3.58,8,8h0c0,4.42-3.58,8-8,8h0c-4.42,0-8-3.58-8-8ZM1218.94,188c0-4.42,3.58-8,8-8h0c4.42,0,8,3.58,8,8h0c0,4.42-3.58,8-8,8h0c-4.42,0-8-3.58-8-8ZM1128.71,188c0-4.42,3.59-8,8-8h0c4.42,0,8,3.58,8,8h0c0,4.42-3.58,8-8,8h0c-4.41,0-8-3.58-8-8ZM1038.49,188c0-4.42,3.58-8,8-8h0c4.42,0,8,3.58,8,8h0c0,4.42-3.58,8-8,8h0c-4.42,0-8-3.58-8-8ZM948.26,188c0-4.42,3.58-8,8-8h0c4.42,0,8,3.58,8,8h0c0,4.42-3.58,8-8,8h0c-4.42,0-8-3.58-8-8ZM858.04,188c0-4.42,3.58-8,8-8h0c4.41,0,8,3.58,8,8h0c0,4.42-3.59,8-8,8h0c-4.42,0-8-3.58-8-8ZM767.81,188c0-4.42,3.58-8,8-8h0c4.42,0,8,3.58,8,8h0c0,4.42-3.58,8-8,8h0c-4.42,0-8-3.58-8-8ZM677.58,188c0-4.42,3.59-8,8-8h0c4.42,0,8,3.58,8,8h0c0,4.42-3.58,8-8,8h0c-4.41,0-8-3.58-8-8ZM587.36,188c0-4.42,3.58-8,8-8h0c4.42,0,8,3.58,8,8h0c0,4.42-3.58,8-8,8h0c-4.42,0-8-3.58-8-8ZM497.13,188c0-4.42,3.58-8,8-8h0c4.42,0,8,3.58,8,8h0c0,4.42-3.58,8-8,8h0c-4.42,0-8-3.58-8-8ZM406.91,188c0-4.42,3.58-8,7.99-8h0c4.42,0,8.01,3.58,8.01,8h0c0,4.42-3.59,8-8.01,8h0c-4.41,0-7.99-3.58-7.99-8ZM316.68,188c0-4.42,3.58-8,8-8h0c4.42,0,8,3.58,8,8h0c0,4.42-3.58,8-8,8h0c-4.42,0-8-3.58-8-8ZM226.45,188c0-4.42,3.58-8,8-8h0c4.42,0,8,3.58,8,8h0c0,4.42-3.58,8-8,8h0c-4.42,0-8-3.58-8-8ZM136.23,188c0-4.42,3.58-8,8-8h0c4.42,0,8,3.58,8,8h0c0,4.42-3.58,8-8,8h0c-4.42,0-8-3.58-8-8Z"/>
      <path class="cls-1" d="M3211.92,196c-.52,0-1.05-.05-1.56-.16-.51-.1-1.02-.25-1.5-.45-.48-.2-.95-.45-1.38-.74-.44-.29-.85-.62-1.22-.99-1.49-1.49-2.34-3.55-2.34-5.66,0-.52.05-1.05.16-1.56.1-.51.25-1.02.45-1.5.2-.48.45-.95.74-1.38.29-.44.62-.85.99-1.22.37-.36.78-.7,1.22-.99.43-.29.9-.54,1.38-.74.48-.2.99-.35,1.5-.45,2.6-.53,5.36.33,7.22,2.18.37.37.7.78.99,1.22.29.43.54.9.74,1.38s.35.99.45,1.5c.11.51.16,1.04.16,1.56,0,2.11-.85,4.17-2.34,5.66-1.49,1.49-3.55,2.34-5.66,2.34Z"/>
    </g>
    <g>
      <path class="cls-1" d="M8,286c-.52,0-1.05-.05-1.56-.16-.51-.1-1.02-.25-1.5-.45-.48-.2-.95-.45-1.38-.74-.44-.29-.85-.62-1.22-.99-.37-.37-.7-.78-.99-1.22-.29-.43-.54-.9-.74-1.38-.2-.48-.35-.99-.45-1.5-.11-.51-.16-1.04-.16-1.56s.05-1.05.16-1.56c.1-.51.25-1.02.45-1.5.2-.48.45-.95.74-1.38.29-.44.62-.85.99-1.22.37-.37.78-.7,1.22-.99.43-.29.9-.54,1.38-.74.48-.2.99-.35,1.5-.45,1.03-.21,2.09-.21,3.12,0,.51.1,1.02.25,1.5.45.48.2.95.45,1.38.74.44.29.85.62,1.22.99.37.37.7.78.99,1.22.29.43.54.9.74,1.38.2.48.35.99.45,1.5.11.51.16,1.04.16,1.56s-.05,1.05-.16,1.56c-.1.51-.25,1.02-.45,1.5-.2.48-.45.95-.74,1.38-.29.44-.62.85-.99,1.22-.37.37-.78.7-1.22.99-.43.29-.9.54-1.38.74-.48.2-.99.35-1.5.45-.51.11-1.04.16-1.56.16Z"/>
      <path class="cls-1" d="M3067.69,278c0-4.42,3.58-8,8-8h0c4.42,0,8,3.58,8,8h0c0,4.42-3.58,8-8,8h0c-4.42,0-8-3.58-8-8ZM2977.46,278c0-4.42,3.59-8,8-8h0c4.42,0,8,3.58,8,8h0c0,4.42-3.58,8-8,8h0c-4.41,0-8-3.58-8-8ZM2887.24,278c0-4.42,3.58-8,8-8h0c4.42,0,8,3.58,8,8h0c0,4.42-3.58,8-8,8h0c-4.42,0-8-3.58-8-8ZM2797.01,278c0-4.42,3.58-8,8-8h0c4.42,0,8,3.58,8,8h0c0,4.42-3.58,8-8,8h0c-4.42,0-8-3.58-8-8ZM2706.79,278c0-4.42,3.58-8,8-8h0c4.41,0,7.99,3.58,7.99,8h0c0,4.42-3.58,8-7.99,8h0c-4.42,0-8-3.58-8-8ZM2616.56,278c0-4.42,3.58-8,8-8h0c4.42,0,8,3.58,8,8h0c0,4.42-3.58,8-8,8h0c-4.42,0-8-3.58-8-8ZM2526.33,278c0-4.42,3.59-8,8-8h0c4.42,0,8,3.58,8,8h0c0,4.42-3.58,8-8,8h0c-4.41,0-8-3.58-8-8ZM2436.11,278c0-4.42,3.58-8,8-8h0c4.41,0,8,3.58,8,8h0c0,4.42-3.59,8-8,8h0c-4.42,0-8-3.58-8-8ZM2345.88,278c0-4.42,3.58-8,8-8h0c4.42,0,8,3.58,8,8h0c0,4.42-3.58,8-8,8h0c-4.42,0-8-3.58-8-8ZM2255.66,278c0-4.42,3.58-8,8-8h0c4.41,0,7.99,3.58,7.99,8h0c0,4.42-3.58,8-7.99,8h0c-4.42,0-8-3.58-8-8ZM2165.43,278c0-4.42,3.58-8,8-8h0c4.42,0,8,3.58,8,8h0c0,4.42-3.58,8-8,8h0c-4.42,0-8-3.58-8-8ZM2075.2,278c0-4.42,3.58-8,8-8h0c4.42,0,8,3.58,8,8h0c0,4.42-3.58,8-8,8h0c-4.42,0-8-3.58-8-8ZM1984.98,278c0-4.42,3.58-8,8-8h0c4.42,0,8,3.58,8,8h0c0,4.42-3.58,8-8,8h0c-4.42,0-8-3.58-8-8ZM1894.75,278c0-4.42,3.58-8,8-8h0c4.42,0,8,3.58,8,8h0c0,4.42-3.58,8-8,8h0c-4.42,0-8-3.58-8-8ZM1804.52,278c0-4.42,3.59-8,8-8h0c4.42,0,8.01,3.58,8.01,8h0c0,4.42-3.59,8-8.01,8h0c-4.41,0-8-3.58-8-8ZM1714.3,278c0-4.42,3.58-8,8-8h0c4.42,0,8,3.58,8,8h0c0,4.42-3.58,8-8,8h0c-4.42,0-8-3.58-8-8ZM1624.07,278c0-4.42,3.58-8,8-8h0c4.42,0,8,3.58,8,8h0c0,4.42-3.58,8-8,8h0c-4.42,0-8-3.58-8-8ZM1533.85,278c0-4.42,3.58-8,7.99-8h0c4.42,0,8.01,3.58,8.01,8h0c0,4.42-3.59,8-8.01,8h0c-4.41,0-7.99-3.58-7.99-8ZM1443.62,278c0-4.42,3.58-8,8-8h0c4.42,0,8,3.58,8,8h0c0,4.42-3.58,8-8,8h0c-4.42,0-8-3.58-8-8ZM1353.39,278c0-4.42,3.59-8,8-8h0c4.42,0,8,3.58,8,8h0c0,4.42-3.58,8-8,8h0c-4.41,0-8-3.58-8-8ZM1263.17,278c0-4.42,3.58-8,8-8h0c4.41,0,8,3.58,8,8h0c0,4.42-3.59,8-8,8h0c-4.42,0-8-3.58-8-8ZM1172.94,278c0-4.42,3.58-8,8-8h0c4.42,0,8,3.58,8,8h0c0,4.42-3.58,8-8,8h0c-4.42,0-8-3.58-8-8ZM1082.72,278c0-4.42,3.58-8,8-8h0c4.41,0,7.99,3.58,7.99,8h0c0,4.42-3.58,8-7.99,8h0c-4.42,0-8-3.58-8-8ZM992.49,278c0-4.42,3.58-8,8-8h0c4.42,0,8,3.58,8,8h0c0,4.42-3.58,8-8,8h0c-4.42,0-8-3.58-8-8ZM902.26,278c0-4.42,3.58-8,8-8h0c4.42,0,8,3.58,8,8h0c0,4.42-3.58,8-8,8h0c-4.42,0-8-3.58-8-8ZM812.04,278c0-4.42,3.58-8,8-8h0c4.42,0,8,3.58,8,8h0c0,4.42-3.58,8-8,8h0c-4.42,0-8-3.58-8-8ZM721.81,278c0-4.42,3.58-8,8-8h0c4.42,0,8,3.58,8,8h0c0,4.42-3.58,8-8,8h0c-4.42,0-8-3.58-8-8ZM631.58,278c0-4.42,3.58-8,8-8h0c4.42,0,8,3.58,8,8h0c0,4.42-3.58,8-8,8h0c-4.42,0-8-3.58-8-8ZM541.36,278c0-4.42,3.58-8,8-8h0c4.42,0,8,3.58,8,8h0c0,4.42-3.58,8-8,8h0c-4.42,0-8-3.58-8-8ZM451.13,278c0-4.42,3.58-8,8-8h0c4.42,0,8,3.58,8,8h0c0,4.42-3.58,8-8,8h0c-4.42,0-8-3.58-8-8ZM360.9,278c0-4.42,3.59-8,8-8h0c4.42,0,8,3.58,8,8h0c0,4.42-3.58,8-8,8h0c-4.41,0-8-3.58-8-8ZM270.68,278c0-4.42,3.58-8,8-8h0c4.42,0,8,3.58,8,8h0c0,4.42-3.58,8-8,8h0c-4.42,0-8-3.58-8-8ZM180.45,278c0-4.42,3.59-8,8-8h0c4.42,0,8,3.58,8,8h0c0,4.42-3.58,8-8,8h0c-4.41,0-8-3.58-8-8ZM90.23,278c0-4.42,3.58-8,8-8h0c4.41,0,8,3.58,8,8h0c0,4.42-3.59,8-8,8h0c-4.42,0-8-3.58-8-8Z"/>
      <path class="cls-1" d="M3165.92,286c-.52,0-1.05-.05-1.56-.16-.51-.1-1.02-.25-1.5-.45-.48-.2-.95-.45-1.38-.74-.44-.29-.85-.62-1.22-.99s-.7-.78-.99-1.22c-.29-.43-.54-.9-.74-1.38-.2-.48-.35-.99-.45-1.5-.11-.51-.16-1.04-.16-1.56,0-2.1.85-4.17,2.34-5.66.37-.37.78-.7,1.22-.99.43-.29.9-.54,1.38-.74.48-.2.99-.35,1.5-.45,1.03-.21,2.09-.21,3.12,0,.51.1,1.02.25,1.5.45.48.2.95.45,1.38.74.44.29.85.62,1.21.99,1.5,1.49,2.35,3.55,2.35,5.66,0,.52-.05,1.05-.16,1.56-.1.51-.25,1.02-.45,1.5s-.45.95-.74,1.38c-.29.44-.63.85-1,1.22-.36.37-.77.7-1.21.99-.43.29-.9.54-1.38.74-.48.2-.99.35-1.5.45-.51.11-1.04.16-1.56.16Z"/>
    </g>
  </g>
  <g>
    <g>
      <path class="cls-1" d="M54,16c-.52,0-1.05-.05-1.56-.16-.51-.1-1.02-.25-1.5-.45-.48-.2-.95-.45-1.38-.74-.44-.29-.85-.62-1.22-.99-.37-.37-.7-.78-.99-1.22-.29-.43-.54-.9-.74-1.38-.2-.48-.35-.99-.45-1.5-.11-.51-.16-1.04-.16-1.56s.05-1.05.16-1.56c.1-.51.25-1.02.45-1.5.2-.48.45-.95.74-1.38.29-.44.62-.85.99-1.22.37-.36.78-.7,1.22-.99.43-.29.9-.54,1.38-.74.48-.2.99-.35,1.5-.45,1.03-.21,2.09-.21,3.12,0,.51.1,1.02.25,1.5.45.48.2.95.45,1.38.74.44.29.85.62,1.22.99.37.37.7.78.99,1.22.29.43.54.9.74,1.38.2.48.35.99.45,1.5.11.51.16,1.04.16,1.56s-.05,1.05-.16,1.56c-.1.51-.25,1.02-.45,1.5-.2.48-.45.95-.74,1.38-.29.44-.62.85-.99,1.22-.37.37-.78.7-1.22.99-.43.29-.9.54-1.38.74-.48.2-.99.35-1.5.45-.51.11-1.04.16-1.56.16Z"/>
      <path class="cls-1" d="M3113.69,8c0-4.42,3.58-8,8-8h0c4.42,0,8,3.58,8,8h0c0,4.42-3.58,8-8,8h0c-4.42,0-8-3.58-8-8ZM3023.47,8c0-4.42,3.57-8,8-8h0c4.41,0,7.99,3.58,7.99,8h0c0,4.42-3.58,8-7.99,8h0c-4.43,0-8-3.58-8-8ZM2933.24,8c0-4.42,3.58-8,8-8h0c4.42,0,8,3.58,8,8h0c0,4.42-3.58,8-8,8h0c-4.42,0-8-3.58-8-8ZM2843.01,8c0-4.42,3.58-8,8-8h0c4.42,0,8,3.58,8,8h0c0,4.42-3.58,8-8,8h0c-4.42,0-8-3.58-8-8ZM2752.79,8c0-4.42,3.58-8,8-8h0c4.41,0,8,3.58,8,8h0c0,4.42-3.59,8-8,8h0c-4.42,0-8-3.58-8-8ZM2662.56,8c0-4.42,3.58-8,8-8h0c4.42,0,8,3.58,8,8h0c0,4.42-3.58,8-8,8h0c-4.42,0-8-3.58-8-8ZM2572.33,8c0-4.42,3.58-8,8-8h0c4.42,0,8,3.58,8,8h0c0,4.42-3.58,8-8,8h0c-4.42,0-8-3.58-8-8ZM2482.11,8c0-4.42,3.58-8,8-8h0c4.41,0,8,3.58,8,8h0c0,4.42-3.59,8-8,8h0c-4.42,0-8-3.58-8-8ZM2391.88,8c0-4.42,3.58-8,8-8h0c4.42,0,8,3.58,8,8h0c0,4.42-3.58,8-8,8h0c-4.42,0-8-3.58-8-8ZM2301.65,8c0-4.42,3.59-8,8.01-8h0c4.41,0,7.99,3.58,7.99,8h0c0,4.42-3.58,8-7.99,8h0c-4.42,0-8.01-3.58-8.01-8ZM2211.43,8c0-4.42,3.58-8,8-8h0c4.42,0,8,3.58,8,8h0c0,4.42-3.58,8-8,8h0c-4.42,0-8-3.58-8-8ZM2121.2,8c0-4.42,3.58-8,8-8h0c4.42,0,8,3.58,8,8h0c0,4.42-3.58,8-8,8h0c-4.42,0-8-3.58-8-8ZM2030.98,8c0-4.42,3.58-8,8-8h0c4.41,0,8,3.58,8,8h0c0,4.42-3.59,8-8,8h0c-4.42,0-8-3.58-8-8ZM1940.75,8c0-4.42,3.58-8,8-8h0c4.42,0,8,3.58,8,8h0c0,4.42-3.58,8-8,8h0c-4.42,0-8-3.58-8-8ZM1850.52,8c0-4.42,3.59-8,8-8h0c4.42,0,8,3.58,8,8h0c0,4.42-3.58,8-8,8h0c-4.41,0-8-3.58-8-8ZM1760.3,8c0-4.42,3.58-8,8-8h0c4.42,0,8,3.58,8,8h0c0,4.42-3.58,8-8,8h0c-4.42,0-8-3.58-8-8ZM1670.07,8c0-4.42,3.58-8,8-8h0c4.42,0,8,3.58,8,8h0c0,4.42-3.58,8-8,8h0c-4.42,0-8-3.58-8-8ZM1579.84,8c0-4.42,3.59-8,8.01-8h0c4.41,0,8,3.58,8,8h0c0,4.42-3.59,8-8,8h0c-4.42,0-8.01-3.58-8.01-8ZM1489.62,8c0-4.42,3.58-8,8-8h0c4.42,0,8,3.58,8,8h0c0,4.42-3.58,8-8,8h0c-4.42,0-8-3.58-8-8ZM1399.39,8c0-4.42,3.59-8,8-8h0c4.42,0,8,3.58,8,8h0c0,4.42-3.58,8-8,8h0c-4.41,0-8-3.58-8-8ZM1309.17,8c0-4.42,3.58-8,8-8h0c4.42,0,8,3.58,8,8h0c0,4.42-3.58,8-8,8h0c-4.42,0-8-3.58-8-8ZM1218.94,8c0-4.42,3.58-8,8-8h0c4.42,0,8,3.58,8,8h0c0,4.42-3.58,8-8,8h0c-4.42,0-8-3.58-8-8ZM1128.71,8c0-4.42,3.59-8,8-8h0c4.42,0,8,3.58,8,8h0c0,4.42-3.58,8-8,8h0c-4.41,0-8-3.58-8-8ZM1038.49,8c0-4.42,3.58-8,8-8h0c4.42,0,8,3.58,8,8h0c0,4.42-3.58,8-8,8h0c-4.42,0-8-3.58-8-8ZM948.26,8c0-4.42,3.58-8,8-8h0c4.42,0,8,3.58,8,8h0c0,4.42-3.58,8-8,8h0c-4.42,0-8-3.58-8-8ZM858.04,8c0-4.42,3.58-8,8-8h0c4.41,0,8,3.58,8,8h0c0,4.42-3.59,8-8,8h0c-4.42,0-8-3.58-8-8ZM767.81,8c0-4.42,3.58-8,8-8h0c4.42,0,8,3.58,8,8h0c0,4.42-3.58,8-8,8h0c-4.42,0-8-3.58-8-8ZM677.58,8c0-4.42,3.59-8,8-8h0c4.42,0,8,3.58,8,8h0c0,4.42-3.58,8-8,8h0c-4.41,0-8-3.58-8-8ZM587.36,8c0-4.42,3.58-8,8-8h0c4.42,0,8,3.58,8,8h0c0,4.42-3.58,8-8,8h0c-4.42,0-8-3.58-8-8ZM497.13,8c0-4.42,3.58-8,8-8h0c4.42,0,8,3.58,8,8h0c0,4.42-3.58,8-8,8h0c-4.42,0-8-3.58-8-8ZM406.91,8c0-4.42,3.58-8,7.99-8h0c4.42,0,8.01,3.58,8.01,8h0c0,4.42-3.59,8-8.01,8h0c-4.41,0-7.99-3.58-7.99-8ZM316.68,8c0-4.42,3.58-8,8-8h0c4.42,0,8,3.58,8,8h0c0,4.42-3.58,8-8,8h0c-4.42,0-8-3.58-8-8ZM226.45,8c0-4.42,3.58-8,8-8h0c4.42,0,8,3.58,8,8h0c0,4.42-3.58,8-8,8h0c-4.42,0-8-3.58-8-8ZM136.23,8c0-4.42,3.58-8,8-8h0c4.42,0,8,3.58,8,8h0c0,4.42-3.58,8-8,8h0c-4.42,0-8-3.58-8-8Z"/>
      <path class="cls-1" d="M3211.92,16c-.52,0-1.05-.05-1.56-.16-.51-.1-1.02-.25-1.5-.45-.48-.2-.95-.45-1.38-.74-.44-.29-.85-.62-1.22-.99-1.49-1.49-2.34-3.55-2.34-5.66,0-.52.05-1.05.16-1.56.1-.51.25-1.02.45-1.5.2-.48.45-.95.74-1.38.29-.44.62-.85.99-1.22s.78-.7,1.22-.99c.43-.29.9-.54,1.38-.74.48-.2.99-.35,1.5-.45,1.03-.21,2.09-.21,3.12,0,.51.1,1.02.25,1.5.45.48.2.95.45,1.38.74.44.29.85.62,1.22.99s.7.78.99,1.22c.29.43.54.9.74,1.38s.35.99.45,1.5c.11.51.16,1.04.16,1.56,0,2.11-.85,4.17-2.34,5.66-1.49,1.49-3.55,2.34-5.66,2.34Z"/>
    </g>
    <g>
      <path class="cls-1" d="M8,106c-.52,0-1.05-.05-1.56-.16-.51-.1-1.02-.25-1.5-.45-.48-.2-.95-.45-1.38-.74-.44-.29-.85-.62-1.22-.99-.36-.37-.7-.78-.99-1.22-.29-.43-.54-.9-.74-1.38-.2-.48-.35-.99-.45-1.5-.11-.51-.16-1.04-.16-1.56s.05-1.05.16-1.56c.1-.51.25-1.02.45-1.5.2-.48.45-.95.74-1.38.29-.44.63-.85.99-1.22.37-.37.78-.7,1.22-.99.43-.29.9-.54,1.38-.74.48-.2.99-.35,1.5-.45,1.03-.21,2.09-.21,3.12,0,.51.1,1.02.25,1.5.45.48.2.95.45,1.38.74.44.29.85.62,1.22.99.37.37.7.78.99,1.22.29.43.54.9.74,1.38.2.48.35.99.45,1.5.11.51.16,1.04.16,1.56s-.05,1.05-.16,1.56c-.1.51-.25,1.02-.45,1.5-.2.48-.45.95-.74,1.38-.29.44-.62.85-.99,1.22-.37.37-.78.7-1.22.99-.43.29-.9.54-1.38.74-.48.2-.99.35-1.5.45-.51.11-1.04.16-1.56.16Z"/>
      <path class="cls-1" d="M3067.69,98c0-4.42,3.58-8,8-8h0c4.42,0,8,3.58,8,8h0c0,4.42-3.58,8-8,8h0c-4.42,0-8-3.58-8-8ZM2977.46,98c0-4.42,3.59-8,8-8h0c4.42,0,8,3.58,8,8h0c0,4.42-3.58,8-8,8h0c-4.41,0-8-3.58-8-8ZM2887.24,98c0-4.42,3.58-8,8-8h0c4.42,0,8,3.58,8,8h0c0,4.42-3.58,8-8,8h0c-4.42,0-8-3.58-8-8ZM2797.01,98c0-4.42,3.58-8,8-8h0c4.42,0,8,3.58,8,8h0c0,4.42-3.58,8-8,8h0c-4.42,0-8-3.58-8-8ZM2706.79,98c0-4.42,3.58-8,8-8h0c4.41,0,7.99,3.58,7.99,8h0c0,4.42-3.58,8-7.99,8h0c-4.42,0-8-3.58-8-8ZM2616.56,98c0-4.42,3.58-8,8-8h0c4.42,0,8,3.58,8,8h0c0,4.42-3.58,8-8,8h0c-4.42,0-8-3.58-8-8ZM2526.33,98c0-4.42,3.59-8,8-8h0c4.42,0,8,3.58,8,8h0c0,4.42-3.58,8-8,8h0c-4.41,0-8-3.58-8-8ZM2436.11,98c0-4.42,3.58-8,8-8h0c4.41,0,8,3.58,8,8h0c0,4.42-3.59,8-8,8h0c-4.42,0-8-3.58-8-8ZM2345.88,98c0-4.42,3.58-8,8-8h0c4.42,0,8,3.58,8,8h0c0,4.42-3.58,8-8,8h0c-4.42,0-8-3.58-8-8ZM2255.66,98c0-4.42,3.58-8,8-8h0c4.41,0,7.99,3.58,7.99,8h0c0,4.42-3.58,8-7.99,8h0c-4.42,0-8-3.58-8-8ZM2165.43,98c0-4.42,3.58-8,8-8h0c4.42,0,8,3.58,8,8h0c0,4.42-3.58,8-8,8h0c-4.42,0-8-3.58-8-8ZM2075.2,98c0-4.42,3.58-8,8-8h0c4.42,0,8,3.58,8,8h0c0,4.42-3.58,8-8,8h0c-4.42,0-8-3.58-8-8ZM1984.98,98c0-4.42,3.58-8,8-8h0c4.42,0,8,3.58,8,8h0c0,4.42-3.58,8-8,8h0c-4.42,0-8-3.58-8-8ZM1894.75,98c0-4.42,3.58-8,8-8h0c4.42,0,8,3.58,8,8h0c0,4.42-3.58,8-8,8h0c-4.42,0-8-3.58-8-8ZM1804.52,98c0-4.42,3.59-8,8-8h0c4.42,0,8.01,3.58,8.01,8h0c0,4.42-3.59,8-8.01,8h0c-4.41,0-8-3.58-8-8ZM1714.3,98c0-4.42,3.58-8,8-8h0c4.42,0,8,3.58,8,8h0c0,4.42-3.58,8-8,8h0c-4.42,0-8-3.58-8-8ZM1624.07,98c0-4.42,3.58-8,8-8h0c4.42,0,8,3.58,8,8h0c0,4.42-3.58,8-8,8h0c-4.42,0-8-3.58-8-8ZM1533.85,98c0-4.42,3.58-8,7.99-8h0c4.42,0,8.01,3.58,8.01,8h0c0,4.42-3.59,8-8.01,8h0c-4.41,0-7.99-3.58-7.99-8ZM1443.62,98c0-4.42,3.58-8,8-8h0c4.42,0,8,3.58,8,8h0c0,4.42-3.58,8-8,8h0c-4.42,0-8-3.58-8-8ZM1353.39,98c0-4.42,3.59-8,8-8h0c4.42,0,8,3.58,8,8h0c0,4.42-3.58,8-8,8h0c-4.41,0-8-3.58-8-8ZM1263.17,98c0-4.42,3.58-8,8-8h0c4.41,0,8,3.58,8,8h0c0,4.42-3.59,8-8,8h0c-4.42,0-8-3.58-8-8ZM1172.94,98c0-4.42,3.58-8,8-8h0c4.42,0,8,3.58,8,8h0c0,4.42-3.58,8-8,8h0c-4.42,0-8-3.58-8-8ZM1082.72,98c0-4.42,3.58-8,8-8h0c4.41,0,7.99,3.58,7.99,8h0c0,4.42-3.58,8-7.99,8h0c-4.42,0-8-3.58-8-8ZM992.49,98c0-4.42,3.58-8,8-8h0c4.42,0,8,3.58,8,8h0c0,4.42-3.58,8-8,8h0c-4.42,0-8-3.58-8-8ZM902.26,98c0-4.42,3.58-8,8-8h0c4.42,0,8,3.58,8,8h0c0,4.42-3.58,8-8,8h0c-4.42,0-8-3.58-8-8ZM812.04,98c0-4.42,3.58-8,8-8h0c4.42,0,8,3.58,8,8h0c0,4.42-3.58,8-8,8h0c-4.42,0-8-3.58-8-8ZM721.81,98c0-4.42,3.58-8,8-8h0c4.42,0,8,3.58,8,8h0c0,4.42-3.58,8-8,8h0c-4.42,0-8-3.58-8-8ZM631.58,98c0-4.42,3.58-8,8-8h0c4.42,0,8,3.58,8,8h0c0,4.42-3.58,8-8,8h0c-4.42,0-8-3.58-8-8ZM541.36,98c0-4.42,3.58-8,8-8h0c4.42,0,8,3.58,8,8h0c0,4.42-3.58,8-8,8h0c-4.42,0-8-3.58-8-8ZM451.13,98c0-4.42,3.58-8,8-8h0c4.42,0,8,3.58,8,8h0c0,4.42-3.58,8-8,8h0c-4.42,0-8-3.58-8-8ZM360.9,98c0-4.42,3.59-8,8-8h0c4.42,0,8,3.58,8,8h0c0,4.42-3.58,8-8,8h0c-4.41,0-8-3.58-8-8ZM270.68,98c0-4.42,3.58-8,8-8h0c4.42,0,8,3.58,8,8h0c0,4.42-3.58,8-8,8h0c-4.42,0-8-3.58-8-8ZM180.45,98c0-4.42,3.59-8,8-8h0c4.42,0,8,3.58,8,8h0c0,4.42-3.58,8-8,8h0c-4.41,0-8-3.58-8-8ZM90.23,98c0-4.42,3.58-8,8-8h0c4.41,0,8,3.58,8,8h0c0,4.42-3.59,8-8,8h0c-4.42,0-8-3.58-8-8Z"/>
      <path class="cls-1" d="M3165.92,106c-.52,0-1.05-.05-1.56-.16-.51-.1-1.02-.25-1.5-.45-.48-.2-.95-.45-1.38-.74-.44-.29-.85-.62-1.22-.99s-.7-.78-.99-1.22c-.29-.43-.54-.9-.74-1.38-.2-.48-.35-.99-.45-1.5-.11-.51-.16-1.04-.16-1.56,0-2.1.85-4.17,2.34-5.66.37-.37.78-.7,1.22-.99.43-.29.9-.54,1.38-.74.48-.2.99-.35,1.5-.45,1.03-.21,2.09-.21,3.12,0,.51.1,1.02.25,1.5.45.48.2.95.45,1.38.74.44.29.85.62,1.21.99,1.5,1.49,2.35,3.55,2.35,5.66,0,.52-.05,1.05-.16,1.56-.1.51-.25,1.02-.45,1.5s-.45.95-.74,1.38c-.29.44-.63.85-1,1.22-.36.37-.77.7-1.21.99-.43.29-.9.54-1.38.74-.48.2-.99.35-1.5.45-.51.11-1.04.16-1.56.16Z"/>
    </g>
  </g>
</svg>